<svg xmlns="http://www.w3.org/2000/svg" xmlns:xlink="http://www.w3.org/1999/xlink" viewBox="0 0 171.26 217.04"><defs><style>.cls-1{fill:none;}.cls-2{isolation:isolate;}.cls-3{fill:#bee5ff;}.cls-4,.cls-7{fill:#b3d2f8;}.cls-36,.cls-37,.cls-5{fill:#fff;}.cls-6{fill:#f4f5ff;}.cls-7{opacity:0.49;}.cls-12,.cls-18,.cls-7,.cls-9{mix-blend-mode:multiply;}.cls-8{fill:#ffd6ac;}.cls-13,.cls-9{fill:#ffb190;}.cls-12,.cls-9{opacity:0.5;}.cls-10{fill:#892a05;}.cls-11{opacity:0.31;}.cls-14{fill:#ffbf96;}.cls-15{fill:#ff878c;}.cls-16{fill:#ff8150;}.cls-17{fill:#ffab00;}.cls-18{opacity:0.11;}.cls-19{fill:#ff997c;}.cls-20{fill:#692106;}.cls-21{fill:#b9afb4;}.cls-22{fill:#5edcff;}.cls-23{fill:#ff756a;}.cls-24{opacity:0.14;}.cls-25{fill:#581f06;}.cls-26{fill:#ffa200;}.cls-27{fill:#fb0;}.cls-28{fill:#ff8900;}.cls-29{fill:#ffda00;}.cls-30{fill:#ff9400;}.cls-31{font-size:13.63px;font-family:Viga-Regular, Viga Regular;}.cls-31,.cls-33{fill:#da4e00;}.cls-32{letter-spacing:-0.01em;}.cls-34{fill:#b83800;}.cls-35,.cls-38,.cls-39,.cls-40,.cls-43,.cls-51{fill:#f0efff;}.cls-35,.cls-45{opacity:0.55;}.cls-36{opacity:0.34;}.cls-37{opacity:0.61;}.cls-38,.cls-44{opacity:0.42;}.cls-39{opacity:0.67;}.cls-40{opacity:0.29;}.cls-41{fill:#d7e1fa;}.cls-42{opacity:0.22;}.cls-46{opacity:0.12;}.cls-47{fill:#deeafa;}.cls-48{fill:#d6def5;}.cls-49{clip-path:url(#clip-path);}.cls-50{fill:#e45800;}.cls-51{opacity:0.74;}</style><clipPath id="clip-path" transform="translate(-63.91 -32.31)"><path class="cls-1" d="M155.92,62.54a22.75,22.75,0,0,1,.4,3c.76,1.79,4,3.42,4,3.42l2.58,0L164.38,70l1.54-.26,2.34,1,2.76.52,1.84,1.21,4.14.14,17.57-5,22-9.58,2.64-6.7-.91-9.63-9.09-10.34-15.17-.77L168.39,45.88Z"/></clipPath></defs><title>Sem título-2</title><g class="cls-2"><g id="Camada_1" data-name="Camada 1"><polygon class="cls-3" points="171.26 175.75 160.15 163.83 149.34 163.17 122.58 155.83 80.69 153.03 73.24 153.34 46.93 155.66 24.78 153.72 24.78 158.07 16.68 162.54 3.99 165.51 3.99 170.43 0.27 169.85 0.27 171.74 0 188.18 1.63 188.45 1.45 191.34 4.03 192.21 6.52 195.63 9.93 195.63 24.52 208.04 50.9 213.01 53.38 211.76 58.96 211.76 65.17 216.73 83.79 217.04 86.58 215.49 92.48 214.87 97.45 212.7 121.65 214.87 135 211.46 138.1 208.66 159.2 202.15 162 199.04 166.03 196.87 169.44 191.9 169.63 188.87 170.69 188.49 171.26 175.75"/><polygon class="cls-4" points="33.94 197.76 34.06 202.68 36.34 204.72 36.46 209.39 37.06 204.12 34.66 202.2 35.02 197.76 33.94 197.76"/><polygon class="cls-4" points="65.17 216.73 65.75 204.82 59.44 199.57 59.54 199.86 58.96 211.76 65.17 216.73"/><polygon class="cls-4" points="7.21 183.43 6.52 195.63 9.93 195.63 10.51 183.72 7.21 183.43"/><polygon class="cls-4" points="4.43 179.77 4.03 192.21 1.45 191.34 2.03 178.6 4.43 179.77"/><polygon class="cls-4" points="53.96 199.86 53.38 211.76 50.9 213.01 51.47 201.1 53.96 199.86"/><polygon class="cls-4" points="84.37 205.13 83.79 217.04 86.58 215.49 87.16 203.58 84.37 205.13"/><polygon class="cls-4" points="135.79 199.08 135 211.46 138.1 208.66 138.68 196.75 135.79 199.08"/><polygon class="cls-4" points="170.69 188.49 169.63 188.87 170.02 179.16 167.41 177.68 171.26 175.75 170.69 188.49"/><polygon class="cls-4" points="162.57 187.13 162 199.04 166.03 196.87 166.61 184.96 162.57 187.13"/><polygon class="cls-5" points="45.58 147.41 24.78 154.55 27.89 156.41 19.82 157.03 7.72 161.69 4.15 165.54 6.47 167.27 0.27 170.69 0.58 175.44 2.58 176.04 2.03 178.6 4.43 179.77 7.09 183.72 10.51 183.72 25.09 196.13 51.47 201.1 53.96 199.86 59.54 199.86 65.75 204.82 84.37 205.13 87.16 203.58 93.06 202.96 98.02 200.79 122.23 202.96 135.57 199.55 138.68 196.75 159.78 190.24 162.57 187.13 166.61 184.96 169.92 179.13 166.92 178.13 171.26 175.75 168.78 165.72 154.82 156.1 123.16 147.41 81.27 144.62 73.82 144.93 45.58 147.41"/><polygon class="cls-6" points="45.58 146.58 24.78 153.72 27.89 155.58 19.82 156.2 7.72 160.85 3.99 165.51 6.47 166.44 0.27 169.85 0.58 175.44 2.44 175.75 2.03 178.6 4.61 179.48 7.09 182.89 10.51 182.89 25.09 195.3 51.47 200.27 53.96 199.03 59.54 199.03 65.75 203.99 84.37 204.3 87.16 202.75 93.06 202.13 98.02 199.96 122.23 202.13 135.57 198.72 138.68 195.92 159.78 189.41 162.57 186.3 166.61 184.13 170.02 179.16 166.92 177.3 171.26 175.75 168.78 164.89 154.82 155.27 123.16 146.58 81.27 143.79 73.82 144.1 45.58 146.58"/><polygon class="cls-4" points="2.44 175.75 9.54 173.76 10.17 170.51 13.84 169.46 18.14 166.21 21.81 164.95 17.41 166.1 13.42 170.51 8.6 170.4 8.18 166.94 14.57 163.38 12.69 161.28 7.72 160.85 13.63 160.86 15.73 163.59 7.34 167.99 7.87 171.03 10.8 171.56 9.86 175.12 2.44 175.75"/><polygon class="cls-4" points="168.78 164.89 161.94 168.21 152.72 166.3 148.91 168.37 154.95 165.98 162.1 167.41 162.58 169.48 160.51 170.28 162.74 172.98 160.67 174.73 152.72 176.79 151.93 181.4 155.75 184.58 152.09 189.19 151.93 191.9 153.04 191.42 152.09 187.92 156.7 184.9 160.67 183.31 166.61 184.13 167.51 182.99 158.92 182.84 156.06 183.63 150.5 180.93 152.41 175.84 162.42 174.73 164.01 172.5 162.26 170.44 164.01 169.16 164.17 168.05 168.78 164.89"/><polygon class="cls-4" points="79.52 199.42 84.24 197.36 88.45 198.72 96.74 195.87 104.48 198.31 113.17 197.5 120.1 202.11 118.33 201.84 111.68 196.82 104.62 198.99 96.47 196.68 88.86 199.67 84.11 198.31 79.52 199.42"/><polygon class="cls-4" points="34.68 197.12 43.5 193.85 42.03 190.58 47.91 188.29 56.57 189.93 62.45 185.35 56.4 190.91 45.3 188.13 40.89 192.05 43.99 195.32 36.34 197.41 34.68 197.12"/><polygon class="cls-4" points="56.4 190.91 66.58 193.56 70.62 200.23 79.52 199.42 87.16 202.75 89.02 202.45 78.91 200.23 69.41 201.24 67.79 192.95 57.18 190.07 56.4 190.91"/><polygon class="cls-7" points="170.69 183.33 169.63 183.71 169.44 186.75 166.03 191.71 162 193.89 159.2 196.99 138.1 203.51 135 206.3 121.65 209.71 97.45 207.54 92.48 209.71 86.58 210.33 83.79 211.88 65.17 211.57 58.96 206.61 53.38 206.61 50.9 207.85 24.52 202.88 9.93 190.47 6.52 190.47 4.03 187.06 1.45 186.18 1.63 183.3 0.08 183.04 0.02 187.02 0.02 188.18 1.63 188.45 1.45 191.34 4.03 192.21 6.52 195.63 9.93 195.63 24.52 208.04 50.9 213.01 53.38 211.76 58.96 211.76 65.17 216.73 83.79 217.04 86.58 215.49 92.48 214.87 97.45 212.7 121.65 214.87 135 211.46 138.1 208.66 159.2 202.15 162 199.04 166.03 196.87 169.44 191.9 169.63 188.87 170.69 188.49 170.74 187.35 170.69 183.33"/><path class="cls-8" d="M137.81,78.4A5.45,5.45,0,0,0,131,81.92c-.49,1.53-4,14.37,9.31,34.11a57,57,0,0,1,9.54-5.32c-10.73-15.59-8.55-25.17-8.45-25.57A5.46,5.46,0,0,0,137.81,78.4Z" transform="translate(-63.91 -32.31)"/><path class="cls-8" d="M138.78,72.29c2.94.74,5.31,2.51,5.24,5.47l-.12,5A5.37,5.37,0,0,1,138.41,88l-5-.12a5.36,5.36,0,0,1-5.22-5.48l.12-5c.07-3,2.56-4.48,5.46-5.26" transform="translate(-63.91 -32.31)"/><path class="cls-9" d="M133.64,78a4.72,4.72,0,0,1,2.87,1.74,7.48,7.48,0,0,1,6.72-.9.89.89,0,0,1-.71,1.63c-.15-.06-3.74-1.49-7.33,2.83a.89.89,0,0,1-1.25.11.76.76,0,0,1-.19-.21.89.89,0,0,1,.07-1,12.64,12.64,0,0,1,1.29-1.33,2.84,2.84,0,0,0-1.71-1.06.89.89,0,0,1,.24-1.77Z" transform="translate(-63.91 -32.31)"/><path class="cls-10" d="M141.11,90.42a3.52,3.52,0,0,1-1.25,1.48c-.53.38.12,1.16.65.78a4.62,4.62,0,0,0,1.56-1.91c.27-.59-.69-.94-1-.35Z" transform="translate(-63.91 -32.31)"/><path class="cls-10" d="M141.81,92.32A2.27,2.27,0,0,1,140.48,94a.51.51,0,0,0,.42.93,3.25,3.25,0,0,0,1.86-2.24c.15-.63-.8-1-.95-.35Z" transform="translate(-63.91 -32.31)"/><path class="cls-10" d="M142.28,95.05a2.48,2.48,0,0,1-.9,1c-.54.37.11,1.15.65.78a3.41,3.41,0,0,0,1.2-1.48c.27-.6-.69-1-.95-.35Z" transform="translate(-63.91 -32.31)"/><path class="cls-10" d="M139.36,111.51c-.18-.53-.35-1.07-.53-1.6a.32.32,0,0,0-.48-.12L137.06,111l.44,0a17.55,17.55,0,0,1-1.53-2.53.32.32,0,0,0-.49-.11,4.85,4.85,0,0,0-1.11,1.32l.5,0a16,16,0,0,1-1.34-1.81c-.22-.34-.7.07-.48.4a16,16,0,0,0,1.34,1.81.32.32,0,0,0,.5,0,4.41,4.41,0,0,1,1-1.2l-.48-.11a17.75,17.75,0,0,0,1.62,2.67.32.32,0,0,0,.44,0l1.28-1.18-.48-.12.53,1.61c.12.38.69.12.57-.26Z" transform="translate(-63.91 -32.31)"/><path class="cls-10" d="M138.63,112.6l-.68-1a.32.32,0,0,0-.5,0c-.41.51-.82,1-1.24,1.52l.5,0c-.32-.37-.82-1.33-1.39-1.35s-1,.77-1.2,1.17.41.57.59.22a1.46,1.46,0,0,1,.61-.71l.28.32.63.75a.32.32,0,0,0,.5,0L138,112l-.5,0,.68,1c.22.33.7-.07.48-.4Z" transform="translate(-63.91 -32.31)"/><path class="cls-10" d="M139.61,110.2a2.82,2.82,0,0,1,.73-.77.31.31,0,0,0,0-.44c-.35-.35-1.33-1-1.19-1.53.07-.27.34-.38.34-.7,0-.69-1.07-1.26-1.52-1.64-.3-.26-.66.25-.36.51s1.24.84,1.14,1.31c0,.22-.31.36-.34.62-.06.68,1,1.41,1.45,1.83,0-.15,0-.29,0-.44a3.42,3.42,0,0,0-.85.89c-.22.34.29.7.52.36Z" transform="translate(-63.91 -32.31)"/><path class="cls-10" d="M137.59,108.76l0,0a.32.32,0,0,0-.49.4l0,0a.31.31,0,0,0,.48-.4Z" transform="translate(-63.91 -32.31)"/><path class="cls-10" d="M138.26,109.46a.31.31,0,0,0,.48-.4.31.31,0,0,0-.48.4Z" transform="translate(-63.91 -32.31)"/><path class="cls-10" d="M140.93,107.89l0,0c-.31.25.08.74.39.48l.05,0a.32.32,0,0,0-.4-.49Z" transform="translate(-63.91 -32.31)"/><path class="cls-8" d="M200.57,154.24a5.44,5.44,0,0,1-4.74,6.06c-1.59.2-14.86,1.22-31.77-15.52a56.06,56.06,0,0,0,7-8.37c13.32,13.45,23.14,13.1,23.54,13.08A5.45,5.45,0,0,1,200.57,154.24Z" transform="translate(-63.91 -32.31)"/><path class="cls-8" d="M206.76,154.42c-.18-3-1.48-5.68-4.4-6.16l-4.9-.81a5.36,5.36,0,0,0-6.16,4.41l-.81,4.9a5.36,5.36,0,0,0,4.41,6.16l4.9.81c2.92.49,4.88-1.67,6.19-4.37" transform="translate(-63.91 -32.31)"/><path class="cls-8" d="M204,159.3a2.52,2.52,0,0,0-3.23,1.49h0a2.52,2.52,0,0,0,1.5,3.24l6.88,2.61a2.52,2.52,0,0,0,3.24-1.5h0a2.52,2.52,0,0,0-1.5-3.24Z" transform="translate(-63.91 -32.31)"/><path class="cls-8" d="M204.46,153.78a2.52,2.52,0,0,1-2.58-2.46h0a2.52,2.52,0,0,1,2.46-2.58l7.38-.35a2.52,2.52,0,0,1,2.58,2.46h0a2.53,2.53,0,0,1-2.46,2.58Z" transform="translate(-63.91 -32.31)"/><path class="cls-8" d="M205.68,154.2a2.53,2.53,0,0,0-2.9,2.08h0a2.54,2.54,0,0,0,2.08,2.9l7.27,1.15a2.52,2.52,0,0,0,2.9-2.08h0a2.52,2.52,0,0,0-2.08-2.9Z" transform="translate(-63.91 -32.31)"/><path class="cls-8" d="M191.48,150.8a2.7,2.7,0,0,0,5.28,1.09c1-4.17,5.53-5.2,5.58-5.21a2.7,2.7,0,0,0-1.15-5.27c-.32.07-7.83,1.79-9.66,9.18C191.51,150.66,191.5,150.73,191.48,150.8Z" transform="translate(-63.91 -32.31)"/><path class="cls-9" d="M200.23,158.41a4.63,4.63,0,0,0-1.17-3.14,7.45,7.45,0,0,0,2.14-6.43.89.89,0,0,0-1.73.39c0,.16.77,4-4.15,6.68a.88.88,0,0,0-.35,1.2.84.84,0,0,0,.18.23.89.89,0,0,0,1,.12,11.87,11.87,0,0,0,1.55-1,2.84,2.84,0,0,1,.72,1.88.88.88,0,0,0,.29.69.87.87,0,0,0,.56.24A.89.89,0,0,0,200.23,158.41Z" transform="translate(-63.91 -32.31)"/><g class="cls-11"><path class="cls-5" d="M201.39,142.92c-3.57.49-6.24,3.08-8,6.1-.72,1.25,1.26,2.27,2,1,1.3-2.26,3.37-4.54,6.08-4.91,1.41-.2,1.33-2.42-.08-2.22Z" transform="translate(-63.91 -32.31)"/></g><g class="cls-11"><path class="cls-5" d="M192.34,152.79a1.11,1.11,0,0,0,2.12-.67,1.11,1.11,0,0,0-2.12.67Z" transform="translate(-63.91 -32.31)"/></g><g class="cls-11"><path class="cls-5" d="M210.84,150.88l0,.08a1.11,1.11,0,0,0,2.12-.67l0-.09a1.11,1.11,0,0,0-2.12.68Z" transform="translate(-63.91 -32.31)"/></g><g class="cls-11"><path class="cls-5" d="M211.6,157l-.06.12a1.11,1.11,0,0,0,2,1l.06-.11a1.11,1.11,0,0,0-2-1Z" transform="translate(-63.91 -32.31)"/></g><g class="cls-11"><path class="cls-5" d="M210.28,163c-.8-.33-1.62-.63-2.42-1-1.32-.55-2.35,1.42-1,2,.8.34,1.62.63,2.42,1,1.32.54,2.35-1.43,1-2Z" transform="translate(-63.91 -32.31)"/></g><g class="cls-12"><path class="cls-13" d="M203.44,161.08a.79.79,0,0,1,.14-.72c2.95-3.74,1.09-8.37,1.07-8.42a.81.81,0,0,1,.42-1,.78.78,0,0,1,1,.42c.09.22,2.22,5.52-1.29,10a.79.79,0,0,1-1.1.13A.89.89,0,0,1,203.44,161.08Z" transform="translate(-63.91 -32.31)"/></g><path class="cls-10" d="M189.38,148.74a3.72,3.72,0,0,0-1.69,1c-.47.45-1.11-.33-.64-.79a4.71,4.71,0,0,1,2.16-1.17c.64-.16.8.85.17,1Z" transform="translate(-63.91 -32.31)"/><path class="cls-10" d="M187.65,147.71a2.27,2.27,0,0,0-1.88,1,.51.51,0,0,1-.84-.59,3.27,3.27,0,0,1,2.55-1.41c.65,0,.82,1,.17,1Z" transform="translate(-63.91 -32.31)"/><path class="cls-10" d="M185.05,146.74a2.45,2.45,0,0,0-1.2.68c-.46.46-1.11-.33-.65-.78a3.38,3.38,0,0,1,1.69-.91c.64-.15.8.86.16,1Z" transform="translate(-63.91 -32.31)"/><path class="cls-10" d="M168.33,146.52l1.48.82a.31.31,0,0,1,0,.5l-1.4,1,0-.44a18,18,0,0,0,2.2,2,.32.32,0,0,1,0,.5,4.87,4.87,0,0,1-1.51.84c0-.16.07-.33.11-.49a17.19,17.19,0,0,0,1.53,1.66c.29.28-.19.67-.48.4a16,16,0,0,1-1.53-1.66.31.31,0,0,1,.11-.48,4.49,4.49,0,0,0,1.37-.76l0,.5a17.75,17.75,0,0,1-2.33-2.09.32.32,0,0,1,.05-.44l1.4-1c0,.16,0,.33,0,.5L168,147c-.35-.2,0-.71.36-.52Z" transform="translate(-63.91 -32.31)"/><path class="cls-10" d="M167.13,147l.87.85a.32.32,0,0,1-.11.49l-1.72.93.11-.48c.31.38,1.15,1.06,1.07,1.61s-.94.83-1.38,1-.48-.5-.1-.62a1.39,1.39,0,0,0,.8-.46l-.26-.33c-.2-.26-.41-.51-.61-.76a.32.32,0,0,1,.11-.49l1.72-.93-.11.48-.87-.85c-.29-.29.19-.68.48-.4Z" transform="translate(-63.91 -32.31)"/><path class="cls-10" d="M169.67,146.53a2.91,2.91,0,0,0,.89-.58.31.31,0,0,1,.44,0c.28.41.75,1.5,1.29,1.46.28,0,.43-.27.75-.21.67.12,1,1.29,1.32,1.8.2.35-.37.6-.57.26s-.59-1.37-1.07-1.37c-.22,0-.42.25-.67.22-.68-.06-1.19-1.27-1.53-1.76l.44,0a3.26,3.26,0,0,1-1,.67c-.37.15-.63-.42-.25-.57Z" transform="translate(-63.91 -32.31)"/><path class="cls-10" d="M170.71,148.78l0,0a.31.31,0,0,1-.48.4l0-.05a.31.31,0,0,1,.49-.39Z" transform="translate(-63.91 -32.31)"/><path class="cls-10" d="M170.15,148a.31.31,0,0,1,.48-.39c.25.31-.23.71-.48.39Z" transform="translate(-63.91 -32.31)"/><path class="cls-10" d="M172.18,145.66l0,0a.31.31,0,0,1-.4-.48l0,0a.31.31,0,0,1,.4.48Z" transform="translate(-63.91 -32.31)"/><path class="cls-8" d="M137.53,135.53c-1.58-1-15.86-9.13-43.76,2.7-2.34-3.82-6-6.53-8.94-7.33A3.12,3.12,0,0,0,81,135.15c2.68,5.64,5.69,11.72,7.45,15.26a3.21,3.21,0,0,0,4.42,1.23c2.2-1.06,4.48-1.95,5.4-2.54,21.94-9.31,32.68-3.78,33.09-3.56a5.88,5.88,0,0,0,6.17-10Z" transform="translate(-63.91 -32.31)"/><path class="cls-14" d="M90.44,147.68a1.53,1.53,0,0,1-.16-.22.85.85,0,0,1,1.39-1,1.81,1.81,0,0,0,2.1.73.85.85,0,1,1,.66,1.57A3.42,3.42,0,0,1,90.44,147.68Z" transform="translate(-63.91 -32.31)"/><path class="cls-8" d="M147.23,147.24c.68,1.74,6,17.29-10.85,42.49,3.32,3,5.31,7.06,5.53,10.15a3.12,3.12,0,0,1-4.89,3c-5-3.68-10.45-7.78-13.6-10.17a3.21,3.21,0,0,1-.38-4.57c1.45-2,2.75-4,3.5-4.83,13.26-19.81,9.83-31.4,9.69-31.84a5.89,5.89,0,0,1,11-4.19Z" transform="translate(-63.91 -32.31)"/><path class="cls-14" d="M147.65,164.46c.3-1.45.51-2.82.65-4.1a19.89,19.89,0,0,1-11.66-6.58,33.36,33.36,0,0,1-2,13.53,16.31,16.31,0,0,0,5.82,0l-1.58,1.31A23.94,23.94,0,0,0,147.65,164.46Z" transform="translate(-63.91 -32.31)"/><path class="cls-14" d="M129.09,144.69l-1.73-2.08a19.87,19.87,0,0,1-4.43-10.7,50.48,50.48,0,0,0-6.89.25,23.22,23.22,0,0,0-3.13,5.08l1.58-1.31a16.92,16.92,0,0,0-.85,8.48C121.26,143.09,126.38,143.92,129.09,144.69Z" transform="translate(-63.91 -32.31)"/><path class="cls-14" d="M126.61,187.5l.17-.21a.85.85,0,0,1,1.28,1.13,1.8,1.8,0,0,0-.21,2.2.85.85,0,1,1-1.36,1A3.43,3.43,0,0,1,126.61,187.5Z" transform="translate(-63.91 -32.31)"/><rect class="cls-8" x="148.15" y="85.01" width="49.27" height="58.3" rx="12" transform="translate(86.66 -124.05) rotate(50.39)"/><path class="cls-15" d="M159.54,101.55a1.1,1.1,0,1,0,1.54.15A1.1,1.1,0,0,0,159.54,101.55Z" transform="translate(-63.91 -32.31)"/><rect class="cls-8" x="124.3" y="108.99" width="45.05" height="53.31" rx="12" transform="translate(93.8 -96.27) rotate(50.39)"/><path class="cls-16" d="M134,145.23a1,1,0,0,1,.37-.7,1.27,1.27,0,0,1,1.78.16.18.18,0,0,1-.28.23.91.91,0,0,0-.61-.33.88.88,0,0,0-.66.21.68.68,0,0,0-.09,1,.51.51,0,0,0,.72.07.38.38,0,0,0,.05-.53.25.25,0,0,0-.18-.1.26.26,0,0,0-.19.06.18.18,0,1,1-.23-.27.59.59,0,0,1,.46-.14.6.6,0,0,1,.42.22.74.74,0,0,1-.1,1,.87.87,0,0,1-1.23-.11A1.05,1.05,0,0,1,134,145.23Z" transform="translate(-63.91 -32.31)"/><path class="cls-17" d="M154.72,158.32h0l.37-.31-3.83.42a18.65,18.65,0,0,1-13.58-6.7l-8.36-10.11a18.65,18.65,0,0,1-4-14.72l1.1-3.57s-7.05,5.51-10.52,13.3l1.47-1.22a15.57,15.57,0,0,0-.29,10l1.93-1.59a23.87,23.87,0,0,0,.29,14.63,23.85,23.85,0,0,0,14.31,3l-1.92,1.59a15.58,15.58,0,0,0,9.87,1.58l-1.47,1.22C147.22,164.16,153.2,159.55,154.72,158.32Z" transform="translate(-63.91 -32.31)"/><path class="cls-5" d="M164.14,98.92a7.16,7.16,0,1,0,10.08,1A7.17,7.17,0,0,0,164.14,98.92Z" transform="translate(-63.91 -32.31)"/><path class="cls-10" d="M165.85,101.13a4.17,4.17,0,1,0,5.88.55A4.17,4.17,0,0,0,165.85,101.13Z" transform="translate(-63.91 -32.31)"/><path class="cls-5" d="M171,103.49a2.61,2.61,0,1,0,3.67.35A2.61,2.61,0,0,0,171,103.49Z" transform="translate(-63.91 -32.31)"/><path class="cls-5" d="M169.34,99.86a1,1,0,1,0,1.45.13A1,1,0,0,0,169.34,99.86Z" transform="translate(-63.91 -32.31)"/><path class="cls-5" d="M169.63,103.09a.5.5,0,0,0,.07-.71.51.51,0,0,0-.71-.06.49.49,0,0,0-.06.7A.49.49,0,0,0,169.63,103.09Z" transform="translate(-63.91 -32.31)"/><path class="cls-5" d="M176.86,114.28a7.16,7.16,0,1,0,10.07,1A7.16,7.16,0,0,0,176.86,114.28Z" transform="translate(-63.91 -32.31)"/><path class="cls-10" d="M178.6,116.53a4.13,4.13,0,1,0,5.82.54A4.13,4.13,0,0,0,178.6,116.53Z" transform="translate(-63.91 -32.31)"/><path class="cls-5" d="M183.71,118.87a2.57,2.57,0,1,0,3.63.34A2.57,2.57,0,0,0,183.71,118.87Z" transform="translate(-63.91 -32.31)"/><path class="cls-5" d="M182.06,115.27a1,1,0,1,0,1.42.14A1,1,0,0,0,182.06,115.27Z" transform="translate(-63.91 -32.31)"/><path class="cls-5" d="M182.34,118.47a.5.5,0,1,0-.7-.07A.5.5,0,0,0,182.34,118.47Z" transform="translate(-63.91 -32.31)"/><g class="cls-18"><path class="cls-10" d="M188.33,122.54a3.14,3.14,0,0,1-.39-1c-3.43-16-19.92-24.48-20.16-24.43,0,0-2.56-1.57-1.94-3.31a3,3,0,0,1,3.34-1.93c2.13-.17,20.58,9.73,24.13,27.82a3.47,3.47,0,0,1-2,4A2.48,2.48,0,0,1,188.33,122.54Z" transform="translate(-63.91 -32.31)"/></g><path class="cls-10" d="M189.79,122.33a2.85,2.85,0,0,1-.53-.93c-5.51-15.2-21-25.49-21.16-25.58,0,0-2.36-1.92-1.58-3.88A2.83,2.83,0,0,1,169.94,90c1.95.17,19,12.26,25.2,29.27a3.13,3.13,0,0,1-5.35,3.06Z" transform="translate(-63.91 -32.31)"/><path class="cls-9" d="M167.26,148A18.72,18.72,0,0,0,174,133.05a20.85,20.85,0,0,1-7.78-5.87l-7.47-9a20.73,20.73,0,0,1-4.31-8.73,18.72,18.72,0,0,0-15.92,3.85L136,115.39a17.21,17.21,0,0,0-1.9,8.42l2.49-2a16.85,16.85,0,0,0-2.72,12.51L139,130s-4.65,6.49-2.63,14.3h0c7.29,3.45,14.54.09,14.54.09l-5.12,4.24a16.85,16.85,0,0,0,12.8-.33l-2.48,2.06a17.15,17.15,0,0,0,8.62-.3Z" transform="translate(-63.91 -32.31)"/><path class="cls-10" d="M187.79,133.72l.93,3.33c4.45-3.07,7.77-10.53,7.77-10.53-.58.52-1.15,1-1.71,1.42l1.71-1.42.2-.18a18.83,18.83,0,0,1-26.22-2.65l-7.47-9a18.82,18.82,0,0,1,2.29-26.25l-.21.16L163.36,90c.54-.47,1.1-.94,1.72-1.42,0,0-8,1.87-11.8,5.67l3.09,1.54s-9.79,3.58-14.66,8l3.13,1.57s-9.1,7.73-9.36,17.33l2.89-2.38s-5,6.12-4,13.55l5.95-4.92s-5.62,7.28-4,15.44h0c7.72,3.1,15.93-1.06,15.93-1.06l-5.95,4.93c7.11,2.35,14.05-1.37,14.05-1.37l-2.88,2.39c9.48,1.55,18.77-5.95,18.77-5.95l1,3.36C182.43,142.67,187.79,133.72,187.79,133.72Z" transform="translate(-63.91 -32.31)"/><path class="cls-8" d="M166,88a5.51,5.51,0,0,0-8.49,7Z" transform="translate(-63.91 -32.31)"/><path class="cls-19" d="M164.38,89.35a3.38,3.38,0,1,0-5.2,4.31Z" transform="translate(-63.91 -32.31)"/><path class="cls-8" d="M197,125.47a5.51,5.51,0,1,1-8.49,7Z" transform="translate(-63.91 -32.31)"/><path class="cls-19" d="M195.4,126.83a3.38,3.38,0,1,1-5.2,4.31Z" transform="translate(-63.91 -32.31)"/><path class="cls-20" d="M160.3,112.55h.58a5,5,0,0,1,5,5v13.77a5,5,0,0,1-5,5h-.58a5,5,0,0,1-5-5V117.55A5,5,0,0,1,160.3,112.55Z" transform="translate(-106.38 98.65) rotate(-39.61)"/><rect class="cls-5" x="149.49" y="119.93" width="22.2" height="9" rx="2.69" transform="translate(90.15 -110.93) rotate(50.39)"/><rect class="cls-21" x="150.23" y="123.75" width="20.39" height="0.97" rx="0.31" transform="translate(89.94 -110.88) rotate(50.39)"/><rect class="cls-21" x="155.93" y="118.07" width="3.92" height="0.97" rx="0.31" transform="translate(-103.25 95.57) rotate(-39.61)"/><rect class="cls-21" x="163" y="130.12" width="2.58" height="0.97" rx="0.31" transform="translate(-109.46 102.43) rotate(-39.61)"/><rect class="cls-22" x="163.83" y="118.52" width="1.4" height="12.4" rx="0.39" transform="translate(91.81 -113.86) rotate(50.39)"/><rect class="cls-22" x="168.72" y="119.64" width="1.22" height="7.53" rx="0.39" transform="translate(92.53 -118.04) rotate(50.39)"/><rect class="cls-22" x="162.9" y="112.61" width="1.22" height="5.5" rx="0.39" transform="translate(84.23 -116.47) rotate(50.39)"/><path class="cls-23" d="M172.58,119.79l-1.3-1.58a2.54,2.54,0,0,0-2.57-.83,2.55,2.55,0,0,0-.34-2.68l-1.3-1.58a2.58,2.58,0,0,0-3.61-.34l-.08.07a2.57,2.57,0,0,0-.34,3.6l1.31,1.58a2.52,2.52,0,0,0,2.56.83,2.57,2.57,0,0,0,.34,2.68l1.31,1.58a2.57,2.57,0,0,0,3.6.34l.08-.07A2.56,2.56,0,0,0,172.58,119.79Z" transform="translate(-63.91 -32.31)"/><rect class="cls-15" x="167.53" y="108.09" width="6.75" height="14.95" rx="1.58" transform="translate(87.06 -122.1) rotate(50.39)"/><path class="cls-10" d="M195.5,101.34a13.38,13.38,0,0,1,9.63,2.44c2,1.46,4.29-1.74,2.24-3.21a17.43,17.43,0,0,0-12.5-3.09c-2.5.32-1.86,4.18.63,3.86Z" transform="translate(-63.91 -32.31)"/><path class="cls-10" d="M192.84,97.45a8.29,8.29,0,0,0,3.61-7.92c-.27-2.51-4.13-1.86-3.86.63a4.48,4.48,0,0,1-2.25,4.28,2,2,0,0,0-.25,2.75,2,2,0,0,0,2.75.26Z" transform="translate(-63.91 -32.31)"/><path class="cls-10" d="M189.64,93.05a8,8,0,0,0-1.21-7.4c-1.5-2-4.51.47-3,2.49a3.93,3.93,0,0,1,.55,3.57c-.79,2.38,2.88,3.74,3.67,1.34Z" transform="translate(-63.91 -32.31)"/><path class="cls-10" d="M195.7,106.43a5.5,5.5,0,0,1,3.27,1.45,2,2,0,0,0,2.72-.48,2,2,0,0,0-.48-2.72,8.83,8.83,0,0,0-5.14-2.14c-2.51-.21-2.88,3.69-.37,3.89Z" transform="translate(-63.91 -32.31)"/><path class="cls-10" d="M189.35,104.11c1.61,1.94,4.62-.55,3-2.49s-4.62.55-3,2.49Z" transform="translate(-63.91 -32.31)"/><path class="cls-10" d="M186.16,98.86c1.6,1.94,4.62-.55,3-2.49s-4.62.55-3,2.49Z" transform="translate(-63.91 -32.31)"/><path class="cls-10" d="M192.53,106.93a1,1,0,0,0,1.51-1.24,1,1,0,0,0-1.51,1.24Z" transform="translate(-63.91 -32.31)"/><path class="cls-10" d="M183.2,88.55a1,1,0,0,0,1.5-1.25,1,1,0,0,0-1.5,1.25Z" transform="translate(-63.91 -32.31)"/><path class="cls-10" d="M179.16,86.44a1,1,0,0,0,1.5-1.25,1,1,0,0,0-1.5,1.25Z" transform="translate(-63.91 -32.31)"/><path class="cls-10" d="M180.26,90.55a1,1,0,0,0,1.51-1.25,1,1,0,0,0-1.51,1.25Z" transform="translate(-63.91 -32.31)"/><path class="cls-10" d="M183.54,92.43a1,1,0,0,0,1.5-1.25,1,1,0,0,0-1.5,1.25Z" transform="translate(-63.91 -32.31)"/><path class="cls-10" d="M197.55,108.37l-.07-.08a1,1,0,0,0-1.51,1.25l.07.08a1,1,0,0,0,1.51-1.25Z" transform="translate(-63.91 -32.31)"/><path class="cls-10" d="M199.86,111.63a1,1,0,0,0,1.51-1.25,1,1,0,0,0-1.51,1.25Z" transform="translate(-63.91 -32.31)"/><path class="cls-10" d="M201.55,116l.08-.07a1,1,0,0,0-1.24-1.51l-.09.07a1,1,0,0,0,1.25,1.51Z" transform="translate(-63.91 -32.31)"/><path class="cls-10" d="M185.71,129.77,187.8,128a8.6,8.6,0,0,1-1.16,2.26l1.8-1.49a1.35,1.35,0,0,1,0,1.31l2.08-1.73a2.77,2.77,0,0,1-.62,1.66c-.57.46-2.37,2-2.37,2l-1.7.26-1.26-.29.11-1.4" transform="translate(-63.91 -32.31)"/><path class="cls-10" d="M160,98.65l2.09-1.73a8.89,8.89,0,0,0-2.44.72l1.8-1.49a1.34,1.34,0,0,0-1.28-.28l2.08-1.72a2.71,2.71,0,0,0-1.74.3l-2.36,2L157.52,98l.06,1.29,1.39.15" transform="translate(-63.91 -32.31)"/><g class="cls-24"><path class="cls-5" d="M168.81,92.8a43,43,0,0,1,10,8.35c.83.94,2.34-.3,1.51-1.25a44.63,44.63,0,0,0-10.37-8.7c-1.07-.65-2.2,1-1.12,1.6Z" transform="translate(-63.91 -32.31)"/><path class="cls-5" d="M180.83,102.91l0,.21c.27,1.23,2.2.92,1.93-.31l-.05-.22c-.28-1.22-2.21-.91-1.93.32Z" transform="translate(-63.91 -32.31)"/><path class="cls-5" d="M183.36,106l.06.08a1,1,0,0,0,1.51-1.25l-.06-.08a1,1,0,0,0-1.51,1.25Z" transform="translate(-63.91 -32.31)"/><path class="cls-5" d="M190.56,116.84a25,25,0,0,1,1.5,3.08c.48,1.17,2.26.36,1.79-.8a27.57,27.57,0,0,0-1.51-3.09c-.62-1.08-2.4-.29-1.78.81Z" transform="translate(-63.91 -32.31)"/><path class="cls-5" d="M183.69,134.32a32,32,0,0,1-5.74,6.81c-.94.83.31,2.34,1.25,1.5a33.28,33.28,0,0,0,6.09-7.19c.67-1.06-.93-2.19-1.6-1.12Z" transform="translate(-63.91 -32.31)"/><path class="cls-5" d="M172.34,142.1a52.52,52.52,0,0,1-7.18,2.89c-1.19.39-.38,2.17.81,1.78a54.19,54.19,0,0,0,7.17-2.88c1.13-.56.33-2.34-.8-1.79Z" transform="translate(-63.91 -32.31)"/><path class="cls-5" d="M174.47,141.84a1,1,0,0,0,1.5-1.24,1,1,0,0,0-1.5,1.24Z" transform="translate(-63.91 -32.31)"/><path class="cls-5" d="M158,144.85a47.86,47.86,0,0,1-5.57,1.29,1,1,0,0,0,.32,1.93,48.83,48.83,0,0,0,5.57-1.29c1.19-.35.88-2.28-.32-1.93Z" transform="translate(-63.91 -32.31)"/><path class="cls-5" d="M160.74,145.29a1,1,0,0,0,1.51-1.24,1,1,0,0,0-1.51,1.24Z" transform="translate(-63.91 -32.31)"/><path class="cls-5" d="M147.23,141.37a21.1,21.1,0,0,1-7.49.91c-1.26-.07-1.45,1.88-.19,1.95a23.88,23.88,0,0,0,8.48-1.07c1.2-.37.39-2.15-.8-1.79Z" transform="translate(-63.91 -32.31)"/><path class="cls-5" d="M150.74,140.31l-.07.06a1,1,0,0,0,1.24,1.51l.08-.06a1,1,0,0,0-1.25-1.51Z" transform="translate(-63.91 -32.31)"/><path class="cls-5" d="M153.24,99.15a28.27,28.27,0,0,0-6.67,3c-1,.66-.26,2.45.8,1.78a28.67,28.67,0,0,1,6.67-3c1.2-.36.38-2.14-.8-1.78Z" transform="translate(-63.91 -32.31)"/><path class="cls-5" d="M148.17,107.45a30.46,30.46,0,0,0-8.78,9.2c-.66,1.06.94,2.19,1.61,1.12a29,29,0,0,1,8.42-8.81c1-.71-.22-2.22-1.25-1.51Z" transform="translate(-63.91 -32.31)"/><path class="cls-5" d="M158.62,135.18a7,7,0,0,0,7.85,2.49c1.2-.38.39-2.16-.8-1.79a5,5,0,0,1-5.54-1.94c-.74-1-2.25.23-1.51,1.24Z" transform="translate(-63.91 -32.31)"/><path class="cls-5" d="M168.15,136.36a1,1,0,0,0,1.5-1.25,1,1,0,0,0-1.5,1.25Z" transform="translate(-63.91 -32.31)"/><path class="cls-5" d="M171.57,112l-3.41,2.82a1,1,0,0,0,1.25,1.5l3.41-2.82a1,1,0,0,0-1.25-1.5Z" transform="translate(-63.91 -32.31)"/><path class="cls-5" d="M165.76,118.05a1,1,0,0,0,1.51-1.24,1,1,0,0,0-1.51,1.24Z" transform="translate(-63.91 -32.31)"/><path class="cls-5" d="M198.21,118.33a7.48,7.48,0,0,1-3,4.45c-1,.72.22,2.23,1.25,1.5a9.15,9.15,0,0,0,3.63-5.28c.3-1.21-1.53-1.9-1.84-.67Z" transform="translate(-63.91 -32.31)"/><path class="cls-5" d="M192.82,125.83a1,1,0,0,0,1.51-1.24,1,1,0,0,0-1.51,1.24Z" transform="translate(-63.91 -32.31)"/></g><path class="cls-25" d="M134.35,147.68l-.83-1A1.29,1.29,0,0,0,134.35,147.68Z" transform="translate(-63.91 -32.31)"/><path class="cls-25" d="M135.92,155.19c.39-1.07.78-2.15,1.18-3.22a1.17,1.17,0,0,0-2.2-.8c-.39,1.07-.79,2.14-1.18,3.22A1.17,1.17,0,0,0,135.92,155.19Z" transform="translate(-63.91 -32.31)"/><path class="cls-25" d="M116.38,140.37a1.18,1.18,0,0,0,1.29-1.84,1.06,1.06,0,0,0-1.06-.38A17.26,17.26,0,0,0,116.38,140.37Z" transform="translate(-63.91 -32.31)"/><path class="cls-25" d="M123.43,130.5l-.1.09a1.17,1.17,0,0,0,1.49,1.8l.1-.09a1.06,1.06,0,0,0,.31-.38c0-.37-.09-.75-.11-1.12A1.12,1.12,0,0,0,123.43,130.5Z" transform="translate(-63.91 -32.31)"/><path class="cls-25" d="M119.25,138c.11,1.51,2.42,1.11,2.3-.37a5.51,5.51,0,0,1,1-3.6,1.17,1.17,0,0,0-1.92-1.34A8,8,0,0,0,119.25,138Z" transform="translate(-63.91 -32.31)"/><path class="cls-25" d="M128.46,140.44a6.13,6.13,0,0,0-1.63,5.6c.33,1.46,2.64,1.09,2.31-.38a3.77,3.77,0,0,1,.78-3.33l-.59-.72C129,141.24,128.74,140.84,128.46,140.44Z" transform="translate(-63.91 -32.31)"/><path class="cls-25" d="M121,128.65a5.08,5.08,0,0,1,1.23,0c1.3.18,1.63-1.57.7-2.15C122.34,127.15,121.69,127.86,121,128.65Z" transform="translate(-63.91 -32.31)"/><path class="cls-25" d="M132.79,147.83c-.22-.68-.45-1.37-.67-2.06-.47-1.43-2.6-.46-2.13,1,.22.69.44,1.37.67,2.06C131.13,150.22,133.25,149.25,132.79,147.83Z" transform="translate(-63.91 -32.31)"/><path class="cls-25" d="M126,152.7a1.17,1.17,0,0,0,1.8-1.49A1.17,1.17,0,0,0,126,152.7Z" transform="translate(-63.91 -32.31)"/><path class="cls-25" d="M123.39,158.62a13.1,13.1,0,0,0,4.67,1.28,1.17,1.17,0,0,0,.22-2.33,11.27,11.27,0,0,1-4.09-1.15C122.84,155.76,122.05,158,123.39,158.62Z" transform="translate(-63.91 -32.31)"/><path class="cls-25" d="M128,149.78a4.38,4.38,0,0,0,1.07,2.15c1,1.11,2.81-.37,1.8-1.49a2.1,2.1,0,0,1-.57-1C130,147.93,127.66,148.31,128,149.78Z" transform="translate(-63.91 -32.31)"/><path class="cls-25" d="M137,158.07a5.8,5.8,0,0,0,4.1-.67c1.29-.76.34-2.89-1-2.14a3.88,3.88,0,0,1-2.92.48C135.75,155.44,135.54,157.77,137,158.07Z" transform="translate(-63.91 -32.31)"/><path class="cls-25" d="M143.63,157.79l.08.1a1.18,1.18,0,0,0,2-.55,17.66,17.66,0,0,1-2.15-.93A1.07,1.07,0,0,0,143.63,157.79Z" transform="translate(-63.91 -32.31)"/><path class="cls-25" d="M147.48,161.24c1.21-.89-.28-2.69-1.49-1.8a7.33,7.33,0,0,1-5.9,1.23c-1.47-.3-1.68,2-.22,2.33A9.64,9.64,0,0,0,147.48,161.24Z" transform="translate(-63.91 -32.31)"/><path class="cls-25" d="M147.85,162.28a1.17,1.17,0,0,0-1.24,1.18c.88-.43,1.71-.87,2.49-1.31A4.32,4.32,0,0,1,147.85,162.28Z" transform="translate(-63.91 -32.31)"/><path class="cls-25" d="M132.1,157.23a1.17,1.17,0,0,0-1.8,1.49A1.17,1.17,0,0,0,132.1,157.23Z" transform="translate(-63.91 -32.31)"/><path class="cls-25" d="M118,150.33a7.59,7.59,0,0,0,2.45,3.72c1.15,1,2.48-1,1.34-1.91a5,5,0,0,1-1.71-3,1.19,1.19,0,0,0-2-.62C118,149.08,118,149.68,118,150.33Z" transform="translate(-63.91 -32.31)"/><path class="cls-25" d="M122.06,159.83a1.18,1.18,0,0,0-.21-1.66,4,4,0,0,1-1.14-1.38,1.22,1.22,0,0,0-2-.2c.17.61.35,1.23.58,1.85A19.49,19.49,0,0,0,122.06,159.83Z" transform="translate(-63.91 -32.31)"/><path class="cls-25" d="M126.77,137.48a19.13,19.13,0,0,1-.74-1.9,1.12,1.12,0,0,0,.74,1.9Z" transform="translate(-63.91 -32.31)"/><path class="cls-25" d="M122,149.2c.48,1.43,2.61.45,2.13-1a4.51,4.51,0,0,1,.21-3.29c.59-1.38-1.6-2.18-2.2-.8A6.88,6.88,0,0,0,122,149.2Z" transform="translate(-63.91 -32.31)"/><path class="cls-25" d="M126.13,140a10.35,10.35,0,0,1-.33-2.21c0-1.49-2.37-1.73-2.33-.22a12.55,12.55,0,0,0,.35,2.8C124.19,141.79,126.49,141.42,126.13,140Z" transform="translate(-63.91 -32.31)"/><path class="cls-10" d="M138.21,146.46l.33.08.16.06.05,0a.2.2,0,0,1,.08,0,2.11,2.11,0,0,1,.3.16.71.71,0,0,1,.14.1l.12.08a.2.2,0,0,0,.28-.28,3.09,3.09,0,0,0-1.35-.65.2.2,0,0,0-.11.39Z" transform="translate(-63.91 -32.31)"/><path class="cls-10" d="M138,148l.26.32.07,0,.08,0a.28.28,0,0,0,.14-.06.25.25,0,0,0,.06-.14v-.06a.22.22,0,0,0,0-.08l-.27-.33-.06,0a.11.11,0,0,0-.08,0,.22.22,0,0,0-.14.05.2.2,0,0,0-.06.15v0a.2.2,0,0,0,.05.09Z" transform="translate(-63.91 -32.31)"/><path class="cls-10" d="M137.2,148.94l.74.74a.21.21,0,0,0,.29,0,.2.2,0,0,0,0-.28c-.25-.25-.5-.49-.74-.74a.22.22,0,0,0-.29,0,.2.2,0,0,0,0,.28Z" transform="translate(-63.91 -32.31)"/><path class="cls-10" d="M133.15,143.72l-.4-.48a.19.19,0,0,0-.28,0,.25.25,0,0,0-.06.14v.05a.26.26,0,0,0,.05.09l.4.48a.19.19,0,0,0,.28,0,.2.2,0,0,0,.06-.14v-.05a.13.13,0,0,0,0-.09Z" transform="translate(-63.91 -32.31)"/><path class="cls-10" d="M134.49,142.6c-.09-.23-.18-.47-.28-.7a.19.19,0,0,0-.09-.12.16.16,0,0,0-.15,0,.19.19,0,0,0-.14.24c.09.24.18.47.28.71a.22.22,0,0,0,.09.12.25.25,0,0,0,.15,0,.2.2,0,0,0,.12-.1.16.16,0,0,0,0-.15Z" transform="translate(-63.91 -32.31)"/><path class="cls-10" d="M135.38,141.34l-.07-.08s0,0-.06,0a.12.12,0,0,0-.08,0,.11.11,0,0,0-.08,0,.08.08,0,0,0-.06,0,.17.17,0,0,0-.06.14v0s0,.06.05.09l.06.08.07,0,.07,0,.08,0,.07,0a.19.19,0,0,0,.05-.14v0a.19.19,0,0,0-.05-.09Z" transform="translate(-63.91 -32.31)"/><path class="cls-10" d="M132.52,142.16a.2.2,0,0,0,0-.4.2.2,0,0,0,0,.4Z" transform="translate(-63.91 -32.31)"/><path class="cls-10" d="M131.58,142.31l-.13-.16-.07,0-.07,0-.08,0s0,0-.06,0a.16.16,0,0,0-.06.14v.06a.16.16,0,0,0,.06.08l.13.16.06,0h.16l.06,0a.17.17,0,0,0,.06-.14v0a.2.2,0,0,0,0-.09Z" transform="translate(-63.91 -32.31)"/><path class="cls-10" d="M136.11,147.05l.42.2a.22.22,0,0,0,.16,0,.19.19,0,0,0,.12-.09.2.2,0,0,0,0-.15.23.23,0,0,0-.09-.12l-.42-.21a.29.29,0,0,0-.16,0,.28.28,0,0,0-.12.1.25.25,0,0,0,0,.15.23.23,0,0,0,.09.12Z" transform="translate(-63.91 -32.31)"/><path class="cls-15" d="M181.27,127.8a1.09,1.09,0,1,0,1.39,1.68,1.09,1.09,0,0,0-1.39-1.68Z" transform="translate(-63.91 -32.31)"/><path class="cls-26" d="M200.21,32.75l-10,6-3.7,4.2L168,53.91l-19.53,14L119.74,84.12a4.22,4.22,0,0,0-1,5.5L148.63,78.5l2.56.14,21.63-8,11.28-2.24,18.36-8.73,3.16.08,6-2.88L209,49.63" transform="translate(-63.91 -32.31)"/><path class="cls-27" d="M200.21,32.75l-10,6-3.7,4.2L168,53.91l-19.53,14L119.74,84.12a4.66,4.66,0,0,0-1.55,2.45l3.7-2.09,6-3.06,16.58-7.91L177,52l11.55-6.59,1.88-2.31,3.14-.82,7.16-3,1.86-1.88Z" transform="translate(-63.91 -32.31)"/><path class="cls-28" d="M211.66,56.84l-2-5.37-3.42-.67L190.8,58.64l-1.42,2.25-7,2.31-21,6.18-9.89,4.7L147.37,76,118.11,87.87a4.8,4.8,0,0,0,.6,1.75L148.63,78.5l2.56.14,21.63-8,11.28-2.24,18.36-8.73,3.16.08Z" transform="translate(-63.91 -32.31)"/><path class="cls-29" d="M211.36,57c2-1,1-7.12-2.11-13.77S201.9,32,199.91,32.9c-1,.48-1.27,2.29-.87,4.83l-7.36,4.11,7.63-2.74c.1.47.23,1,.38,1.47l-4.26,2,4.57-1a41.47,41.47,0,0,0,2,5c.07.14.13.28.2.41l-3.35,1.6,3.91-.49a35.94,35.94,0,0,0,3.37,5.33l-7.57,3.65,8.76-2.26a13,13,0,0,0,1.37,1.28l-2,1.21,2.75-.69A2.05,2.05,0,0,0,211.36,57Z" transform="translate(-63.91 -32.31)"/><path class="cls-27" d="M211.66,56.84c2-1,1.05-7.11-2.11-13.76s-7.35-11.28-9.34-10.33c-1,.48-1.27,2.3-.87,4.84L191.52,42l8.09-3c.1.48.23,1,.38,1.48l-4.67,2.22,5-1.18a41.47,41.47,0,0,0,2,5.05l.2.41-3.65,1.74,4.21-.63a35.94,35.94,0,0,0,3.37,5.33l-8,3.82,9.22-2.43A11.91,11.91,0,0,0,209,56l-2.27,1.36,3-.83A2,2,0,0,0,211.66,56.84Z" transform="translate(-63.91 -32.31)"/><path class="cls-30" d="M203.41,46A34.44,34.44,0,0,1,202,42.52a.2.2,0,0,1,.12-.26.21.21,0,0,1,.26.15,31.2,31.2,0,0,0,1.4,3.42c2.46,5.18,5.33,8.08,6.46,7.54.43-.21.64-.92.59-2a.18.18,0,0,1,.19-.2.23.23,0,0,1,.21.23c.06,1.28-.21,2.11-.79,2.38C208.91,54.49,205.83,51.08,203.41,46Z" transform="translate(-63.91 -32.31)"/><path class="cls-30" d="M201.33,40.19s0,0,0-.06c-.55-2.47-.37-4.07.5-4.48,1.52-.72,4.6,2.69,7,7.78a31.87,31.87,0,0,1,1.62,4.07.2.2,0,0,1-.13.26.21.21,0,0,1-.25-.16,32,32,0,0,0-1.59-4c-2.46-5.17-5.33-8.07-6.47-7.53-.67.31-.78,1.82-.29,4a.2.2,0,0,1-.15.25A.22.22,0,0,1,201.33,40.19Z" transform="translate(-63.91 -32.31)"/><path class="cls-30" d="M204.45,45.5c-1.25-2.62-2-5.69-.91-6.21s3,2,4.24,4.63,2,5.69.91,6.21S205.7,48.13,204.45,45.5Zm3-1.41c-1.41-3-3.08-4.68-3.7-4.39s-.33,2.68,1.08,5.64,3.07,4.68,3.69,4.38S208.83,47,207.43,44.09Z" transform="translate(-63.91 -32.31)"/><path class="cls-27" d="M163.69,64.86l-1.47.5c-.12,0-.73.21-.93-.21s.16-.88.85-1.21c.87-.4,1.21.07,1.34.25a.48.48,0,0,0,.63.14l1.5-.78a.5.5,0,0,0,.21-.65c-.79-1.71-2.79-2.28-4.75-1.37-2.25,1-3.17,3-2.3,4.87.75,1.62,2.2,2.2,4.09,1.63l1.48-.51c.72-.21.88.13.95.29s.3.64-.8,1.15a2,2,0,0,1-1.1.18.85.85,0,0,1-.72-.5.57.57,0,0,0-.29-.26.48.48,0,0,0-.39,0l-1.52.79a.5.5,0,0,0-.22.65,3.3,3.3,0,0,0,2.59,2l.15,0a5.08,5.08,0,0,0,2.61-.45c2.22-1,3.12-3,2.25-4.84A3.1,3.1,0,0,0,163.69,64.86Z" transform="translate(-63.91 -32.31)"/><path class="cls-27" d="M174.63,60.7c-1.4-3-3.43-3.89-6-2.67a4.12,4.12,0,0,0-2.47,2.59,5.56,5.56,0,0,0,.63,3.75l.3.64c1,2.12,2.13,3.23,3.56,3.39a4.82,4.82,0,0,0,2.57-.53c2.69-1.26,3.26-3.32,1.77-6.5Zm-2.32,1.85a4.78,4.78,0,0,1,.55,1.79,1.16,1.16,0,0,1-.82,1.1c-1.12.52-1.64-.09-2.39-1.65l-.21-.46a4.75,4.75,0,0,1-.56-1.81c0-.32.11-.73.83-1.06a1.45,1.45,0,0,1,.83-.18.92.92,0,0,1,.51.22,4.55,4.55,0,0,1,1,1.59h0Z" transform="translate(-63.91 -32.31)"/><path class="cls-27" d="M184.88,61.5l-3.2-2.32a3.36,3.36,0,0,0,.21-3.3,3.47,3.47,0,0,0-4.83-1.72l-1.46.68A2.76,2.76,0,0,0,174,56.3a2.52,2.52,0,0,0,.24,2l3.22,6.91a.51.51,0,0,0,.28.26l.11,0a.51.51,0,0,0,.27,0l1.72-.8a.53.53,0,0,0,.25-.28.46.46,0,0,0,0-.38l-1.31-2.81.52-.24,3,2.28a.49.49,0,0,0,.51.05l2-.93a.52.52,0,0,0,.28-.4A.51.51,0,0,0,184.88,61.5Zm-6.8-4.86h0a.9.9,0,0,1,.53-.1.45.45,0,0,1,.16,0,1,1,0,0,1,.5.53.87.87,0,0,1-.41,1.21l-1.17.55-.62-1.34c-.13-.29,0-.38.16-.48Z" transform="translate(-63.91 -32.31)"/><path class="cls-27" d="M193,57.73l-3.19-2.32a3.36,3.36,0,0,0,.2-3.3,3.63,3.63,0,0,0-2-1.9,3.6,3.6,0,0,0-2.86.18l-1.46.68a2.85,2.85,0,0,0-1.59,1.46,2.63,2.63,0,0,0,.24,2l3.23,6.9a.48.48,0,0,0,.39.28.46.46,0,0,0,.26,0l1.72-.8a.55.55,0,0,0,.26-.28.55.55,0,0,0,0-.38l-1.31-2.81.51-.24,3,2.28a.49.49,0,0,0,.51,0l2-.93a.46.46,0,0,0,.28-.4A.51.51,0,0,0,193,57.73Zm-6.11-4.93a1.05,1.05,0,0,1,.55,1.26.85.85,0,0,1-.45.48l-1.17.55-.63-1.34a.49.49,0,0,1,0-.29c0-.09.13-.15.22-.19l.85-.4A.91.91,0,0,1,186.84,52.8Z" transform="translate(-63.91 -32.31)"/><path class="cls-27" d="M197.89,55.7l-1.64-3.5.22-6.31a.5.5,0,0,0-.22-.43.48.48,0,0,0-.48,0l-1.87.87a.5.5,0,0,0-.28.45l0,3.23-2.47-2.09a.51.51,0,0,0-.53-.07l-1.86.87a.49.49,0,0,0-.29.39.5.5,0,0,0,.19.45l5,3.88,1.64,3.5a.48.48,0,0,0,.39.28.46.46,0,0,0,.26,0l1.71-.8a.44.44,0,0,0,.25-.28A.47.47,0,0,0,197.89,55.7Z" transform="translate(-63.91 -32.31)"/><text class="cls-31" transform="translate(97.76 40.24) rotate(-25.02)">SOR<tspan class="cls-32" x="23.44" y="0">R</tspan><tspan x="30.62" y="0">Y</tspan></text><path class="cls-33" d="M174.18,60.91c-1.25-2.7-3-3.57-5.39-2.44s-2.86,3-1.61,5.69l.3.64c1.41,3,3,3.77,5.48,2.62s2.92-2.88,1.53-5.85Zm-1.93,5c-1.67.78-2.41-.55-3.05-1.89l-.21-.46c-.69-1.47-1.09-2.78.51-3.53s2.36.4,3.05,1.87l.21.46C173.4,63.71,173.87,65.13,172.25,65.89Zm-8.4-.57-1.48.51a1.18,1.18,0,0,1-1.53-.47c-.28-.61,0-1.38,1.09-1.86a1.46,1.46,0,0,1,1.95.4l1.5-.79c-.7-1.5-2.46-1.9-4.1-1.13-2,.94-2.8,2.64-2.06,4.21a2.62,2.62,0,0,0,3.48,1.37l1.5-.52a1.16,1.16,0,0,1,1.54.56c.33.71,0,1.34-1,1.81a1.8,1.8,0,0,1-2.48-.56l-1.52.8c1,2.14,3.36,1.92,4.69,1.3,1.85-.86,2.8-2.48,2-4.18A2.63,2.63,0,0,0,163.85,65.32Zm31.9-13,.23-6.42-1.87.87,0,4.3-3.3-2.78-1.86.87,5.06,4,1.68,3.61,1.71-.79Zm-14.31,3.79a3,3,0,0,0-4.17-1.48l-1.46.68c-1.47.68-1.71,1.53-1.11,2.82l3.23,6.9,1.72-.8L178.12,61l1.24-.58,3.24,2.46,2-.93L181,59.28A2.82,2.82,0,0,0,181.44,56.09Zm-2.37,2.67-1.62.76-.83-1.8a.77.77,0,0,1,.4-1.13l.85-.4a1.3,1.3,0,0,1,1.85.7A1.37,1.37,0,0,1,179.07,58.76Zm10.44-6.44a3,3,0,0,0-4.17-1.48l-1.45.68c-1.47.68-1.71,1.53-1.11,2.82l3.22,6.9,1.72-.8-1.52-3.26,1.23-.58,3.24,2.46,2-.93L189,55.51A2.8,2.8,0,0,0,189.51,52.32ZM187.15,55l-1.62.76L184.69,54a.78.78,0,0,1,.41-1.14l.85-.4a1.31,1.31,0,0,1,1.85.7A1.39,1.39,0,0,1,187.15,55Z" transform="translate(-63.91 -32.31)"/><path class="cls-34" d="M180.82,59l.25.18a2.82,2.82,0,0,0,.37-3.06l-.09-.15A2.78,2.78,0,0,1,180.82,59Z" transform="translate(-63.91 -32.31)"/><path class="cls-34" d="M177.73,55.89l-.85.4a.77.77,0,0,0-.41,1.13l.84,1.79h0l-.69-1.49a.77.77,0,0,1,.4-1.13l.85-.4a1.27,1.27,0,0,1,1.73.49s0-.06,0-.09A1.31,1.31,0,0,0,177.73,55.89Z" transform="translate(-63.91 -32.31)"/><path class="cls-34" d="M169.06,63.7l.06.12-.13-.28c-.69-1.47-1.09-2.78.51-3.53s2.31.34,3,1.75l-.08-.18c-.68-1.47-1.46-2.61-3-1.87s-1.2,2.06-.52,3.53Z" transform="translate(-63.91 -32.31)"/><path class="cls-34" d="M189.51,52.32a1.19,1.19,0,0,0-.09-.15,2.76,2.76,0,0,1-.52,3l.25.18A2.8,2.8,0,0,0,189.51,52.32Z" transform="translate(-63.91 -32.31)"/><polygon class="cls-34" points="129.99 20.48 125.22 16.75 125.07 16.82 130.13 20.77 129.99 20.48"/><path class="cls-34" d="M185.8,52.12l-.85.4a.77.77,0,0,0-.4,1.13l.84,1.79h0l-.7-1.48a.78.78,0,0,1,.41-1.14l.85-.4a1.26,1.26,0,0,1,1.72.49s0-.06,0-.09A1.3,1.3,0,0,0,185.8,52.12Z" transform="translate(-63.91 -32.31)"/><path class="cls-34" d="M167.29,66.58c.7,1.66-.24,3.23-2,4.07-1.27.59-3.47.81-4.54-1h0c1,2.14,3.36,1.92,4.69,1.3,1.85-.86,2.8-2.48,2-4.18A1.86,1.86,0,0,0,167.29,66.58Z" transform="translate(-63.91 -32.31)"/><polygon class="cls-34" points="126.61 26.45 123.38 23.99 122.14 24.56 123.66 27.82 121.95 28.63 122.09 28.93 123.81 28.13 122.28 24.86 123.52 24.29 126.76 26.75 128.75 25.82 128.44 25.59 126.61 26.45"/><polygon class="cls-34" points="118.54 30.21 115.3 27.76 114.06 28.33 115.59 31.59 113.87 32.39 114.01 32.7 115.73 31.89 114.21 28.63 115.44 28.06 118.68 30.52 120.67 29.59 120.36 29.36 118.54 30.21"/><polygon class="cls-34" points="131.84 19.98 132.06 13.56 131.91 13.63 131.7 19.68 133.38 23.29 131.68 24.08 131.82 24.39 133.53 23.59 131.84 19.98"/><path class="cls-34" d="M163.73,63.6a1.45,1.45,0,0,0-1.94-.41c-1,.49-1.37,1.26-1.09,1.87a.7.7,0,0,0,.08.1c-.14-.57.22-1.23,1.15-1.66a1.46,1.46,0,0,1,1.95.4l1.5-.79a2.82,2.82,0,0,0-.18-.29Z" transform="translate(-63.91 -32.31)"/><path class="cls-34" d="M162.7,67.56l1.5-.52a1.15,1.15,0,0,1,1.46.45.7.7,0,0,0-.06-.19,1.16,1.16,0,0,0-1.54-.56l-1.51.52a2.62,2.62,0,0,1-3.38-1.19l.05.12A2.62,2.62,0,0,0,162.7,67.56Z" transform="translate(-63.91 -32.31)"/><path class="cls-34" d="M174.18,60.91l0-.06.2.42c1.38,3,.9,4.71-1.53,5.85s-4,.39-5.45-2.56l.11.24c1.41,3,3,3.77,5.48,2.62s2.92-2.88,1.53-5.85Z" transform="translate(-63.91 -32.31)"/><path class="cls-8" d="M139.49,88a2.7,2.7,0,0,1-.08-5.39c4.28-.24,6.13-4.46,6.15-4.5a2.7,2.7,0,1,1,5,2.11c-.12.3-3.22,7.36-10.81,7.78Z" transform="translate(-63.91 -32.31)"/><g class="cls-11"><path class="cls-5" d="M149.08,79.72c-1.15,3.41-4.19,5.54-7.49,6.68-1.35.48-2-1.66-.63-2.13,2.46-.85,5.08-2.46,6-5,.45-1.35,2.62-.86,2.16.5Z" transform="translate(-63.91 -32.31)"/></g><g class="cls-11"><path class="cls-5" d="M137.69,86.75a1.11,1.11,0,0,1,1.06-2,1.11,1.11,0,0,1-1.06,2Z" transform="translate(-63.91 -32.31)"/></g><path class="cls-28" d="M134,78.11a2.75,2.75,0,1,0,5.49.13l.07-2.31a2.74,2.74,0,0,0,5.26-.36l1.56-6.51-6.53,3.69-.22.92,0-.81L134.05,76Z" transform="translate(-63.91 -32.31)"/><path class="cls-28" d="M127.94,81.42a2.74,2.74,0,1,0,5.45.62l.63-6-5.87,3.32Z" transform="translate(-63.91 -32.31)"/><path class="cls-8" d="M132.61,81.4a2.53,2.53,0,0,1-2.8,2.22h0a2.52,2.52,0,0,1-2.21-2.8l.76-7.32a2.52,2.52,0,0,1,2.8-2.22h0a2.53,2.53,0,0,1,2.21,2.8Z" transform="translate(-63.91 -32.31)"/><g class="cls-11"><path class="cls-5" d="M132.18,74.12c-.07.87-.17,1.73-.23,2.6-.1,1.42-2.33,1.46-2.22,0,.06-.87.16-1.74.22-2.61.11-1.41,2.33-1.45,2.23,0Z" transform="translate(-63.91 -32.31)"/></g><path class="cls-8" d="M138.19,77.91a2.52,2.52,0,0,1-2.58,2.46h0a2.51,2.51,0,0,1-2.45-2.58l.22-7.36A2.52,2.52,0,0,1,136,68h0a2.52,2.52,0,0,1,2.46,2.58Z" transform="translate(-63.91 -32.31)"/><g class="cls-11"><path class="cls-5" d="M135.88,71.69l-.13,0a1.11,1.11,0,0,1-.63-2.13l.12,0a1.11,1.11,0,0,1,.64,2.13Z" transform="translate(-63.91 -32.31)"/></g><path class="cls-8" d="M138.16,74.39a2.51,2.51,0,0,0,1.93,3h0a2.52,2.52,0,0,0,3-1.94l1.72-7.18a2.51,2.51,0,0,0-1.93-3h0a2.53,2.53,0,0,0-3,1.93Z" transform="translate(-63.91 -32.31)"/><g class="cls-11"><path class="cls-5" d="M142.2,68.67l-.08,0a1.11,1.11,0,0,1,1.06-2l.08,0a1.11,1.11,0,0,1-1.06,2Z" transform="translate(-63.91 -32.31)"/></g><path class="cls-35" d="M75,123.81v6.34l5-18.66,18.63-25L115,78.27l3.11-3.74,7.76-.37,24.46-5.23,33,7.1,3.49,4.85,3.5,1.87L192.25,88l6.6.75,11.26,10.82,10.48,25.39,1.4,16.8c.36-1.41.69-2.83,1-4.27l-2.36-28.21L210.11,83.87,198.85,73l-6.6-.75-1.78-2.86L187,67.56l-3.49-4.85-33.15-9.45L126,60.58l-7.77.37-3.1,3.73L98.7,70.8l-15.77,25L75,114.47l.39,3Z" transform="translate(-63.91 -32.31)"/><polygon class="cls-36" points="92.01 30.23 88.8 27.76 89.74 25.46 86.41 20.94 90.31 25.23 89.74 26.54 91.62 26.29 93.84 25.38 91.89 23.42 90.89 22.14 92.75 23.55 94.37 24.22 95.42 23.62 94.55 24.88 95.08 26.12 93.67 26.46 89.74 27.41 92.01 30.23"/><polygon class="cls-37" points="92.01 30.23 92.22 33.49 93.46 35.36 94.71 36.11 96.4 36.62 97.74 37.19 99.08 36.93 100.47 37.73 101.91 37.9 104.47 38.95 107.11 38.95 102.58 35.03 95.26 29.93 92.01 30.23"/><polygon class="cls-37" points="92.22 33.49 91.72 35.36 92.37 35.91 91.89 36.5 90.33 36.5 86.64 37.19 87.61 37.19 90.89 36.74 91.09 36.11 92.37 37.07 92.84 35.84 92.01 35.05 92.57 33.8 92.22 33.49"/><polygon class="cls-36" points="107.11 38.95 111.83 40.75 113.4 42.21 116.98 40.75 119.41 43.71 116.12 40.29 115.01 40.97 114.27 41.33 113.87 42.67 111.36 41.19 109.44 39.46 107.11 38.95"/><polygon class="cls-38" points="62.16 41.8 86.06 36.69 86.46 20.95 86.41 20.94 63.74 27.91 62.16 41.8"/><polygon class="cls-39" points="14.21 99.7 13.82 99.47 13.6 99.95 14.21 99.7"/><path class="cls-40" d="M211.93,179.67l8.16-16A69.36,69.36,0,0,0,223,153.14l-2.36-28.21L210.11,99.54,198.85,88.72l-6.6-.75-1.94-5.22-3.5-1.87L183.32,76l-33-7.1-24.46,5.23-7.76.37L115,78.27,98.7,86.48l-18.63,25-5,18.66,3.1,1.87-2.71,1.12L75,139.48l3.1,7.1L75.8,151.8l3.94,17.61c11.7,25.47,38.19,43.26,69,43.26a76.14,76.14,0,0,0,63.22-33Z" transform="translate(-63.91 -32.31)"/><path class="cls-41" d="M84.06,177.37l7.7,2.8L95.49,177l6.75,2.8,8.63-3.25,18.76,11.77,14.44.07,1.74,1.12,2.33-.89,3.73-.34,7.46-3.7,9.21,1.8,10,2.38,4.94-9.41,7.11.56,2-4.59,2.79.22,5.25,2.36,11-5.94L223,153.14,213.65,174l-4.08,4.82-27.27,13-34,8.85s-12.93-1-14.56-1.45-36.59-13.34-36.59-13.34L90,183.53Z" transform="translate(-63.91 -32.31)"/><polygon class="cls-39" points="14.06 114.59 11.88 119.49 11.98 119.93 14.21 114.93 14.06 114.59"/><path class="cls-39" d="M80.07,112.15l18.63-25L115,78.93l3.11-3.73,7.76-.37,24.46-5.23,33,7.09,3.49,4.86,3.5,1.86,1.94,5.23,6.6.74,11.26,10.83,10.48,25.38,2.32,27.74a1.62,1.62,0,0,1,0-.19l-2.36-28.21L210.11,99.54,198.85,88.72l-6.6-.75-1.94-5.22-3.5-1.87L183.32,76l-33-7.1-24.46,5.23-7.76.37L115,78.27,98.7,86.48l-18.63,25-5,18.66.15.09Z" transform="translate(-63.91 -32.31)"/><polygon class="cls-39" points="11.49 101.49 14.21 100.37 13.55 99.97 11.49 100.82 11.11 107.17 11.14 107.25 11.49 101.49"/><polygon class="cls-38" points="119.5 43.84 122.9 48.56 122.94 35.08 119.66 30.52 119.5 43.84"/><polygon class="cls-38" points="128.8 40.03 128.34 39.98 126.78 37.73 126.32 50.39 126.39 50.43 128.34 55.66 128.39 55.66 128.8 40.03"/><polygon class="cls-38" points="51.1 45.94 54.19 42.22 54.28 42.21 54.05 29 51.56 32 51.1 45.94"/><g class="cls-42"><polygon class="cls-43" points="30.12 44.75 21.72 59.86 22.12 71.17 31.32 58.81 30.12 44.75"/><polygon class="cls-43" points="16.49 78.71 19.01 63.49 11.37 81.18 14.72 84.46 16.15 79.17 16.49 78.71"/><polygon class="cls-43" points="40.16 36.42 36.68 37.68 38.1 52.49 39.8 51.63 40.16 36.42"/><polygon class="cls-43" points="47.05 33.91 42.34 35.84 42.28 50.39 46.48 48.27 47.05 33.91"/></g><g class="cls-44"><polygon class="cls-43" points="156.78 78.19 156.67 76.93 146.67 52.72 146.87 68.88 156.5 92.2 156.78 78.19"/><polygon class="cls-43" points="138.18 59.52 143.58 64.72 143.65 49.11 139.25 44.88 138.18 59.52"/></g><g class="cls-45"><polygon class="cls-43" points="46.37 48.88 50.45 51.1 50.98 60.31 60.2 69.86 61.09 80.26 60.91 67.98 51.87 59.97 52.05 49.91 49.21 47.18 46.37 48.88"/><polygon class="cls-43" points="38.92 52.47 36.8 55.36 38.92 58.77 44.42 60.48 43.36 69.86 47.43 73.1 41.76 70.03 43.36 63.72 38.75 66.96 39.1 75.48 27.22 77.7 37.86 74.8 37.5 65.94 43.18 62.7 42.82 58.26 36.97 58.26 35.55 55.7 36.26 53.49 38.92 52.47"/><polygon class="cls-43" points="156.67 92.61 150.81 100.21 127.41 101.57 150.99 101.06 155.42 95.78 156.84 96.8 156.67 92.61"/><polygon class="cls-43" points="157.87 107.16 153.47 110.27 146.73 106.69 140 113 127.23 115.56 123.33 110.27 119.25 111.63 124.75 110.61 128.29 116.92 125.63 120.33 129 130.73 119.25 141.64 130.24 131.07 127.41 120.5 129.89 116.41 141.24 113.85 148.68 106.18 154.89 111.63 157.97 108.28 157.87 107.16"/></g><g class="cls-46"><polygon class="cls-5" points="18.91 102.46 84.3 37.07 66.8 40.81 18.91 102.46"/><path class="cls-5" d="M204.93,94.57l-3.08-3L98.9,194.55c1.1.93,2.22,1.82,3.37,2.69Z" transform="translate(-63.91 -32.31)"/><path class="cls-5" d="M188,202.06l-17.4-.61c-4.18,3.29-9.34,7.37-13.5,10.77A76.92,76.92,0,0,0,188,202.06Z" transform="translate(-63.91 -32.31)"/><path class="cls-5" d="M192.25,88l-1.94-5.22-3.5-1.87L183.32,76l-20.74-4.46L77,157.15l2.75,12.26a72.38,72.38,0,0,0,12.47,18.7L192.34,88Z" transform="translate(-63.91 -32.31)"/><path class="cls-5" d="M216.1,114.07l-5.42-13.14L109.52,202.09A77.53,77.53,0,0,0,122.15,208Z" transform="translate(-63.91 -32.31)"/><path class="cls-5" d="M178.25,195.49l24.32-49.11-54.3,54.29,22.35.78C175,198,178.25,195.49,178.25,195.49Z" transform="translate(-63.91 -32.31)"/></g><path class="cls-47" d="M80.65,203.05l5.33-7L90.9,194l-2.17-9.88L84.06,176l7.54,5.46,3.81-4.19,7,2.87,7.16-2.26,18.26,12.5,16.62,1.35,3.69,5.74v-6.56l5.32-.41,6.56-5.33,7.38,1.64,12.06,3.28,4.52-10.36,7.37-.41,3.28-4.1,6.15,4.1,12.4-8.1L223,150.77l-2.54,13.75-3.68,8.61-.82,6.15-9.84,8.61,1.64,11.88,15.16,3.69L213,205.92l-.82,4.1s-6.56,1.64-7.79,1.64,0,7,0,7L161,215.35l-4.5,2.87-7.79-.82-7.79-3.69-9.28,6.87-4-8.09-6-.83-29.1,3.28L95,208l-12.71.82,9-6.56Z" transform="translate(-63.91 -32.31)"/><polygon class="cls-48" points="28.62 182.62 41.19 176.96 49.14 177.73 53.49 171.58 59.9 168.25 62.21 159.79 61.44 169.53 58.11 174.14 59.9 176.96 57.72 179.34 28.62 182.62"/><polygon class="cls-48" points="18.38 176.47 31.08 175.65 35.69 172.22 41.05 173.12 44.62 168.65 45.51 163.07 51.1 162.62 52.88 155.48 49.53 164.63 43.95 165.08 40.6 171.33 34.13 169.77 28.99 173.79 18.38 176.47"/><polygon class="cls-48" points="16.74 170.74 27.39 169.92 30.11 164.41 34.8 163.52 29.21 163.29 26.09 168.88 16.74 170.74"/><polygon class="cls-48" points="84.78 185.08 76.99 181.39 75.66 173.79 69.41 171.56 67.62 164.19 70.75 170.66 78.78 173.34 78.78 180.71 84.78 185.08"/><polygon class="cls-48" points="97.07 183.03 94.19 175.8 89.05 171.11 84.14 169.55 80.72 164.16 86.15 169.1 92.18 171.11 96.2 176.69 103.34 179.59 110.04 176.47 116.07 181.83 125.45 183.17 131.25 185.18 140.52 186.31 115.4 185.4 107.81 183.61 100.22 185.18 97.07 183.03"/><polygon class="cls-48" points="148.3 177.7 139.52 179.59 134.16 176.69 129.25 177.58 121.21 172.45 117.41 161.73 108.93 158.83 120.54 161.73 123.89 176.69 130.36 179.59 140.86 175.8 148.3 177.7"/><polygon class="cls-48" points="149.12 173.6 158.96 171.15 145.1 171.56 139.96 168.21 130.59 164.63 130.36 159.94 129.47 165.75 142.42 168.43 146.44 173.79 149.12 173.6"/><g class="cls-49"><path class="cls-26" d="M200.21,32.75l-10,6-3.7,4.2L168,53.91l-19.53,14L119.74,84.12a4.22,4.22,0,0,0-1,5.5L148.63,78.5l2.56.14,21.63-8,11.28-2.24,18.36-8.73,3.16.08,6-2.88L209,49.63" transform="translate(-63.91 -32.31)"/><path class="cls-27" d="M200.21,32.75l-10,6-3.7,4.2L168,53.91l-19.53,14L119.74,84.12a4.66,4.66,0,0,0-1.55,2.45l3.7-2.09,6-3.06,16.58-7.91L177,52l11.55-6.59,1.88-2.31,3.14-.82,7.16-3,1.86-1.88Z" transform="translate(-63.91 -32.31)"/><path class="cls-28" d="M211.66,56.84l-2-5.37-3.42-.67L190.8,58.64l-1.42,2.25-7,2.31-21,6.18-9.89,4.7L147.37,76,118.11,87.87a4.8,4.8,0,0,0,.6,1.75L148.63,78.5l2.56.14,21.63-8,11.28-2.24,18.36-8.73,3.16.08Z" transform="translate(-63.91 -32.31)"/><path class="cls-29" d="M211.36,57c2-1,1-7.12-2.11-13.77S201.9,32,199.91,32.9c-1,.48-1.27,2.29-.87,4.83l-7.36,4.11,7.63-2.74c.1.47.23,1,.38,1.47l-4.26,2,4.57-1a41.47,41.47,0,0,0,2,5c.07.14.13.28.2.41l-3.35,1.6,3.91-.49a35.94,35.94,0,0,0,3.37,5.33l-7.57,3.65,8.76-2.26a13,13,0,0,0,1.37,1.28l-2,1.21,2.75-.69A2.05,2.05,0,0,0,211.36,57Z" transform="translate(-63.91 -32.31)"/><path class="cls-50" d="M211.66,56.84c2-1,1.05-7.11-2.11-13.76s-7.35-11.28-9.34-10.33c-1,.48-1.27,2.3-.87,4.84L191.52,42l8.09-3c.1.48.23,1,.38,1.48l-4.67,2.22,5-1.18a41.47,41.47,0,0,0,2,5.05l.2.41-3.65,1.74,4.21-.63a35.94,35.94,0,0,0,3.37,5.33l-8,3.82,9.22-2.43A11.91,11.91,0,0,0,209,56l-2.27,1.36,3-.83A2,2,0,0,0,211.66,56.84Z" transform="translate(-63.91 -32.31)"/><path class="cls-30" d="M203.41,46A34.44,34.44,0,0,1,202,42.52a.2.2,0,0,1,.12-.26.21.21,0,0,1,.26.15,31.2,31.2,0,0,0,1.4,3.42c2.46,5.18,5.33,8.08,6.46,7.54.43-.21.64-.92.59-2a.18.18,0,0,1,.19-.2.23.23,0,0,1,.21.23c.06,1.28-.21,2.11-.79,2.38C208.91,54.49,205.83,51.08,203.41,46Z" transform="translate(-63.91 -32.31)"/><path class="cls-30" d="M201.33,40.19s0,0,0-.06c-.55-2.47-.37-4.07.5-4.48,1.52-.72,4.6,2.69,7,7.78a31.87,31.87,0,0,1,1.62,4.07.2.2,0,0,1-.13.26.21.21,0,0,1-.25-.16,32,32,0,0,0-1.59-4c-2.46-5.17-5.33-8.07-6.47-7.53-.67.31-.78,1.82-.29,4a.2.2,0,0,1-.15.25A.22.22,0,0,1,201.33,40.19Z" transform="translate(-63.91 -32.31)"/><path class="cls-30" d="M204.45,45.5c-1.25-2.62-2-5.69-.91-6.21s3,2,4.24,4.63,2,5.69.91,6.21S205.7,48.13,204.45,45.5Zm3-1.41c-1.41-3-3.08-4.68-3.7-4.39s-.33,2.68,1.08,5.64,3.07,4.68,3.69,4.38S208.83,47,207.43,44.09Z" transform="translate(-63.91 -32.31)"/><path class="cls-27" d="M163.69,64.86l-1.47.5c-.12,0-.73.21-.93-.21s.16-.88.85-1.21c.87-.4,1.21.07,1.34.25a.48.48,0,0,0,.63.14l1.5-.78a.5.5,0,0,0,.21-.65c-.79-1.71-2.79-2.28-4.75-1.37-2.25,1-3.17,3-2.3,4.87.75,1.62,2.2,2.2,4.09,1.63l1.48-.51c.72-.21.88.13.95.29s.3.64-.8,1.15a2,2,0,0,1-1.1.18.85.85,0,0,1-.72-.5.57.57,0,0,0-.29-.26.48.48,0,0,0-.39,0l-1.52.79a.5.5,0,0,0-.22.65,3.3,3.3,0,0,0,2.59,2l.15,0a5.08,5.08,0,0,0,2.61-.45c2.22-1,3.12-3,2.25-4.84A3.1,3.1,0,0,0,163.69,64.86Z" transform="translate(-63.91 -32.31)"/><path class="cls-27" d="M174.63,60.7c-1.4-3-3.43-3.89-6-2.67a4.12,4.12,0,0,0-2.47,2.59,5.56,5.56,0,0,0,.63,3.75l.3.64c1,2.12,2.13,3.23,3.56,3.39a4.82,4.82,0,0,0,2.57-.53c2.69-1.26,3.26-3.32,1.77-6.5Zm-2.32,1.85a4.78,4.78,0,0,1,.55,1.79,1.16,1.16,0,0,1-.82,1.1c-1.12.52-1.64-.09-2.39-1.65l-.21-.46a4.75,4.75,0,0,1-.56-1.81c0-.32.11-.73.83-1.06a1.45,1.45,0,0,1,.83-.18.92.92,0,0,1,.51.22,4.55,4.55,0,0,1,1,1.59h0Z" transform="translate(-63.91 -32.31)"/><path class="cls-27" d="M184.88,61.5l-3.2-2.32a3.36,3.36,0,0,0,.21-3.3,3.47,3.47,0,0,0-4.83-1.72l-1.46.68A2.76,2.76,0,0,0,174,56.3a2.52,2.52,0,0,0,.24,2l3.22,6.91a.51.51,0,0,0,.28.26l.11,0a.51.51,0,0,0,.27,0l1.72-.8a.53.53,0,0,0,.25-.28.46.46,0,0,0,0-.38l-1.31-2.81.52-.24,3,2.28a.49.49,0,0,0,.51.05l2-.93a.52.52,0,0,0,.28-.4A.51.51,0,0,0,184.88,61.5Zm-6.8-4.86h0a.9.9,0,0,1,.53-.1.45.45,0,0,1,.16,0,1,1,0,0,1,.5.53.87.87,0,0,1-.41,1.21l-1.17.55-.62-1.34c-.13-.29,0-.38.16-.48Z" transform="translate(-63.91 -32.31)"/><path class="cls-27" d="M193,57.73l-3.19-2.32a3.36,3.36,0,0,0,.2-3.3,3.63,3.63,0,0,0-2-1.9,3.6,3.6,0,0,0-2.86.18l-1.46.68a2.85,2.85,0,0,0-1.59,1.46,2.63,2.63,0,0,0,.24,2l3.23,6.9a.48.48,0,0,0,.39.28.46.46,0,0,0,.26,0l1.72-.8a.55.55,0,0,0,.26-.28.55.55,0,0,0,0-.38l-1.31-2.81.51-.24,3,2.28a.49.49,0,0,0,.51,0l2-.93a.46.46,0,0,0,.28-.4A.51.51,0,0,0,193,57.73Zm-6.11-4.93a1.05,1.05,0,0,1,.55,1.26.85.85,0,0,1-.45.48l-1.17.55-.63-1.34a.49.49,0,0,1,0-.29c0-.09.13-.15.22-.19l.85-.4A.91.91,0,0,1,186.84,52.8Z" transform="translate(-63.91 -32.31)"/><path class="cls-27" d="M197.89,55.7l-1.64-3.5.22-6.31a.5.5,0,0,0-.22-.43.48.48,0,0,0-.48,0l-1.87.87a.5.5,0,0,0-.28.45l0,3.23-2.47-2.09a.51.51,0,0,0-.53-.07l-1.86.87a.49.49,0,0,0-.29.39.5.5,0,0,0,.19.45l5,3.88,1.64,3.5a.48.48,0,0,0,.39.28.46.46,0,0,0,.26,0l1.71-.8a.44.44,0,0,0,.25-.28A.47.47,0,0,0,197.89,55.7Z" transform="translate(-63.91 -32.31)"/><text class="cls-31" transform="translate(97.76 40.24) rotate(-25.02)">SOR<tspan class="cls-32" x="23.44" y="0">R</tspan><tspan x="30.62" y="0">Y</tspan></text><path class="cls-33" d="M174.18,60.91c-1.25-2.7-3-3.57-5.39-2.44s-2.86,3-1.61,5.69l.3.64c1.41,3,3,3.77,5.48,2.62s2.92-2.88,1.53-5.85Zm-1.93,5c-1.67.78-2.41-.55-3.05-1.89l-.21-.46c-.69-1.47-1.09-2.78.51-3.53s2.36.4,3.05,1.87l.21.46C173.4,63.71,173.87,65.13,172.25,65.89Zm-8.4-.57-1.48.51a1.18,1.18,0,0,1-1.53-.47c-.28-.61,0-1.38,1.09-1.86a1.46,1.46,0,0,1,1.95.4l1.5-.79c-.7-1.5-2.46-1.9-4.1-1.13-2,.94-2.8,2.64-2.06,4.21a2.62,2.62,0,0,0,3.48,1.37l1.5-.52a1.16,1.16,0,0,1,1.54.56c.33.71,0,1.34-1,1.81a1.8,1.8,0,0,1-2.48-.56l-1.52.8c1,2.14,3.36,1.92,4.69,1.3,1.85-.86,2.8-2.48,2-4.18A2.63,2.63,0,0,0,163.85,65.32Zm31.9-13,.23-6.42-1.87.87,0,4.3-3.3-2.78-1.86.87,5.06,4,1.68,3.61,1.71-.79Zm-14.31,3.79a3,3,0,0,0-4.17-1.48l-1.46.68c-1.47.68-1.71,1.53-1.11,2.82l3.23,6.9,1.72-.8L178.12,61l1.24-.58,3.24,2.46,2-.93L181,59.28A2.82,2.82,0,0,0,181.44,56.09Zm-2.37,2.67-1.62.76-.83-1.8a.77.77,0,0,1,.4-1.13l.85-.4a1.3,1.3,0,0,1,1.85.7A1.37,1.37,0,0,1,179.07,58.76Zm10.44-6.44a3,3,0,0,0-4.17-1.48l-1.45.68c-1.47.68-1.71,1.53-1.11,2.82l3.22,6.9,1.72-.8-1.52-3.26,1.23-.58,3.24,2.46,2-.93L189,55.51A2.8,2.8,0,0,0,189.51,52.32ZM187.15,55l-1.62.76L184.69,54a.78.78,0,0,1,.41-1.14l.85-.4a1.31,1.31,0,0,1,1.85.7A1.39,1.39,0,0,1,187.15,55Z" transform="translate(-63.91 -32.31)"/><path class="cls-34" d="M180.82,59l.25.18a2.82,2.82,0,0,0,.37-3.06l-.09-.15A2.78,2.78,0,0,1,180.82,59Z" transform="translate(-63.91 -32.31)"/><path class="cls-34" d="M177.73,55.89l-.85.4a.77.77,0,0,0-.41,1.13l.84,1.79h0l-.69-1.49a.77.77,0,0,1,.4-1.13l.85-.4a1.27,1.27,0,0,1,1.73.49s0-.06,0-.09A1.31,1.31,0,0,0,177.73,55.89Z" transform="translate(-63.91 -32.31)"/><path class="cls-34" d="M169.06,63.7l.06.12-.13-.28c-.69-1.47-1.09-2.78.51-3.53s2.31.34,3,1.75l-.08-.18c-.68-1.47-1.46-2.61-3-1.87s-1.2,2.06-.52,3.53Z" transform="translate(-63.91 -32.31)"/><path class="cls-34" d="M189.51,52.32a1.19,1.19,0,0,0-.09-.15,2.76,2.76,0,0,1-.52,3l.25.18A2.8,2.8,0,0,0,189.51,52.32Z" transform="translate(-63.91 -32.31)"/><polygon class="cls-34" points="129.99 20.48 125.22 16.75 125.07 16.82 130.13 20.77 129.99 20.48"/><path class="cls-34" d="M185.8,52.12l-.85.4a.77.77,0,0,0-.4,1.13l.84,1.79h0l-.7-1.48a.78.78,0,0,1,.41-1.14l.85-.4a1.26,1.26,0,0,1,1.72.49s0-.06,0-.09A1.3,1.3,0,0,0,185.8,52.12Z" transform="translate(-63.91 -32.31)"/><path class="cls-34" d="M167.29,66.58c.7,1.66-.24,3.23-2,4.07-1.27.59-3.47.81-4.54-1h0c1,2.14,3.36,1.92,4.69,1.3,1.85-.86,2.8-2.48,2-4.18A1.86,1.86,0,0,0,167.29,66.58Z" transform="translate(-63.91 -32.31)"/><polygon class="cls-34" points="126.61 26.45 123.38 23.99 122.14 24.56 123.66 27.82 121.95 28.63 122.09 28.93 123.81 28.13 122.28 24.86 123.52 24.29 126.76 26.75 128.75 25.82 128.44 25.59 126.61 26.45"/><polygon class="cls-34" points="118.54 30.21 115.3 27.76 114.06 28.33 115.59 31.59 113.87 32.39 114.01 32.7 115.73 31.89 114.21 28.63 115.44 28.06 118.68 30.52 120.67 29.59 120.36 29.36 118.54 30.21"/><polygon class="cls-34" points="131.84 19.98 132.06 13.56 131.91 13.63 131.7 19.68 133.38 23.29 131.68 24.08 131.82 24.39 133.53 23.59 131.84 19.98"/><path class="cls-34" d="M163.73,63.6a1.45,1.45,0,0,0-1.94-.41c-1,.49-1.37,1.26-1.09,1.87a.7.7,0,0,0,.08.1c-.14-.57.22-1.23,1.15-1.66a1.46,1.46,0,0,1,1.95.4l1.5-.79a2.82,2.82,0,0,0-.18-.29Z" transform="translate(-63.91 -32.31)"/><path class="cls-34" d="M162.7,67.56l1.5-.52a1.15,1.15,0,0,1,1.46.45.7.7,0,0,0-.06-.19,1.16,1.16,0,0,0-1.54-.56l-1.51.52a2.62,2.62,0,0,1-3.38-1.19l.05.12A2.62,2.62,0,0,0,162.7,67.56Z" transform="translate(-63.91 -32.31)"/><path class="cls-34" d="M174.18,60.91l0-.06.2.42c1.38,3,.9,4.71-1.53,5.85s-4,.39-5.45-2.56l.11.24c1.41,3,3,3.77,5.48,2.62s2.92-2.88,1.53-5.85Z" transform="translate(-63.91 -32.31)"/></g><polygon class="cls-35" points="130.35 31.37 132.58 28.79 132.78 26.29 134.16 27.76 136.03 26.54 139.11 26.29 140.55 24.39 141.81 26.54 145.12 25.78 145.12 42.67 143.51 27.76 142.12 28.28 142.12 52.16 139.49 29.28 136.67 30.51 136.67 42.21 135.72 30.52 134.26 31.97 134.26 40.29 132.78 30.65 130.35 31.37"/><polygon class="cls-51" points="133.19 27.35 134.02 28.33 134.65 27.96 135.06 29.42 133.83 30.65 134.02 36.62 134.13 30.98 135.61 29.28 134.85 27.76 134.02 27.96 133.19 27.35"/><polygon class="cls-51" points="142.2 52.72 140.6 28.93 139.51 27.46 137.09 28.79 136.17 27.2 137.63 27.76 140.14 26.46 141.37 28.54 142.2 52.72"/><path class="cls-6" d="M180.82,43.79c0,1.25-1.61,2.4-.91,3s2.56-1.61,4.23-1.42,2.7,1,3.8-.67,1.48-4.32,3.53-4.55,3.7-.12,3.86-1.61a4.19,4.19,0,0,1,2.45-3.32c1.12-.37,1.61-1.7-.34-1.67s-3.59-2-7.38-.93-5.73,4.74-5.62,6.6S180.81,40.86,180.82,43.79Z" transform="translate(-63.91 -32.31)"/><path class="cls-6" d="M176,47.64c-1,.45-1.63,2-1.16,2.2s2.71-1,2.93-1.42S177,47.18,176,47.64Z" transform="translate(-63.91 -32.31)"/></g></g></svg>