<?xml version="1.0" encoding="utf-8"?>
<!-- Generator: Adobe Illustrator 19.0.0, SVG Export Plug-In . SVG Version: 6.00 Build 0)  -->
<svg version="1.1" id="Layer_1" xmlns="http://www.w3.org/2000/svg" xmlns:xlink="http://www.w3.org/1999/xlink" x="0px" y="0px"
	 viewBox="0 0 500 500" style="enable-background:new 0 0 500 500;" xml:space="preserve">
<style type="text/css">
	.st0{fill:#237DAC;}
	.st1{fill:#FFFFFF;}
	.st2{fill:#61AAD4;}
</style>
<g id="XMLID_1_">
	<path id="XMLID_3_" class="st0" d="M432.5,250c0,100.8-81.7,182.5-182.5,182.5c-100.8,0-182.5-81.7-182.5-182.5
		c0-100.8,81.7-182.5,182.5-182.5C350.8,67.5,432.5,149.2,432.5,250"/>
	<path id="XMLID_4_" class="st1" d="M251.8,154.1c0,0,56.8,92.5,56.8,126.2c0,26.9-12.6,59.2-56.8,59.2c-44.2,0-56.8-32.3-56.8-59.2
		C195,247.7,251.8,154.1,251.8,154.1"/>
	<path id="XMLID_5_" class="st2" d="M210.8,185.2c0,0,35.8,58.2,35.8,79.4c0,16.9-7.9,37.2-35.8,37.2c-27.8,0-35.8-20.4-35.8-37.3
		C175.1,244.1,210.8,185.2,210.8,185.2"/>
</g>
</svg>
