<?xml version="1.0" encoding="iso-8859-1"?>
<!-- Generator: Adobe Illustrator 19.0.0, SVG Export Plug-In . SVG Version: 6.00 Build 0)  -->
<svg version="1.1" id="Capa_1" xmlns="http://www.w3.org/2000/svg" xmlns:xlink="http://www.w3.org/1999/xlink" x="0px" y="0px"
	 viewBox="0 0 512.001 512.001" style="enable-background:new 0 0 512.001 512.001;" xml:space="preserve">
<path style="fill:#EFEFEF;" d="M119.753,473.695c5.605,17.099,21.743,30.541,40.654,30.541H406.21
	c18.911,0,35.048-13.441,40.654-30.541H119.753z"/>
<path style="fill:#DDDDDD;" d="M179.705,473.695h-59.952c5.605,17.099,21.743,30.541,40.654,30.541h59.952
	C201.447,504.236,185.31,490.795,179.705,473.695z"/>
<path style="fill:#EFEFEF;" d="M380.2,9.104C371.419,7.335,74.567,6.582,61.971,9.262l0,0c-3.052,0.644-6.07,1.498-9.533,2.779l0,0
	c-8.115,3.033-15.496,7.592-21.716,13.183l0,0C17.042,37.454,8.378,54.917,8.069,75.79c0,19.395,0,278.32,0,290.77
	c0,19.439,8.358,37.72,22.651,50.551l0,0c4.024,3.617,8.553,6.825,13.461,9.447l0,0c10.192,5.456,21.19,8.006,31.892,8.006l0,0
	c23.757,0,150.311,0,166.409,0l0,0c136.202-0.032,129.895,1.068,144.124-2.956c22.894-6.995,40.411-25.82,46.134-48.289
	c2.982-11.652,2.108,9.946,2.108-307.546C434.849,44.42,412.798,15.668,380.2,9.104z"/>
<path style="fill:#DDDDDD;" d="M104.134,426.559L104.134,426.559c-4.857-2.594-9.395-5.792-13.462-9.447l0,0
	c-10.528-9.452-18.346-22.427-21.322-37.219c-2.176-10.817-1.229-1.131-1.329-253.447c-0.147-57.088,0.05-54.727,0.396-57.933
	c0.032-0.104,1.114-24.385,22.255-43.289l0,0c6.57-5.905,14.025-10.31,21.716-13.183l0,0c3.435-1.27,6.513-2.14,9.533-2.779l0,0
	c4.494-0.956,9.278-1.491,14.104-1.491c-56.902,0.683-61.236-1.236-74.054,1.49l0,0c-3.053,0.644-6.07,1.499-9.533,2.779l0,0
	c-8.115,3.033-15.496,7.592-21.716,13.183l0,0C18.978,35.721,10.333,50.978,8.466,68.507c0.004-0.1-0.397-14.113-0.397,298.055
	c0,19.439,8.358,37.72,22.651,50.551l0,0c4.024,3.617,8.553,6.825,13.461,9.447l0,0c10.217,5.469,21.215,8.006,31.892,8.006l0,0
	h59.952C125.017,434.566,114.049,431.867,104.134,426.559z"/>
<path style="fill:#CCCCCC;" d="M267.861,204.747c1.323-0.914,1.45-2.789,0.24-3.848c-10.842-9.491-26.16-11.349-38.78-5.224
	l-0.001-0.001c-0.001,0-0.001,0-0.001,0h-0.001c-4.711,2.457-8.156,2.457-12.882-0.119v0.001l-0.001-0.001l-0.001,0.001
	c-22.739-11.566-50.15,4.141-51.449,29.816c-3.124,33.361,23.513,61.901,23.532,61.921c4.432,5.23,11.598,6.644,17.505,4.009
	l0.001,0.002c0.367-0.077,14.573-7.758,31.087-0.099c0.101,0.047,0.951,0.442,0.851,0.395l0.001-0.001
	c5.792,2.714,13.01,1.506,17.576-3.684c0.013-0.013,11.518-11.904,18.862-29.415c0.517-1.232-0.06-2.641-1.292-3.158
	C252.032,246.492,248.991,217.788,267.861,204.747z"/>
<path style="fill:#BABABA;" d="M215.368,195.052c-22.757-10.635-49.113,5.239-50.382,30.321
	c-3.124,33.361,23.512,61.901,23.532,61.921c3.474,4.099,8.884,6.105,14.381,4.998c1.137-0.233,2.224-0.588,3.123-0.989v0.002
	c0.633-0.221,5.346-2.845,13.048-3.395C193.581,261.03,181.745,210.788,215.368,195.052z"/>
<g>
	<path style="fill:#CCCCCC;" d="M219.377,185.429c0.256,1.508,1.809,2.862,3.337,2.909c20.884,0.645,34.715-15.213,31.223-35.821
		c-0.256-1.508-1.809-2.862-3.337-2.909C229.717,148.961,215.884,164.82,219.377,185.429z"/>
	<path style="fill:#CCCCCC;" d="M491.508,474.694h-416.4c-7.221,0-13.129-5.908-13.129-13.129v-67.274
		c0-7.221,5.908-13.129,13.129-13.129h416.4c7.221,0,13.129,5.908,13.129,13.129v67.274
		C504.638,468.786,498.729,474.694,491.508,474.694z"/>
</g>
<path style="fill:#BABABA;" d="M121.93,461.565v-67.274c0-7.221,5.908-13.129,13.129-13.129H75.108
	c-7.221,0-13.129,5.908-13.129,13.129v67.274c0,7.221,5.908,13.129,13.129,13.129h59.952
	C127.839,474.694,121.93,468.786,121.93,461.565z"/>
<path d="M446.731,402.334h-327.11c-4.139,0-7.494,3.354-7.494,7.494c0,4.14,3.355,7.494,7.494,7.494h327.11
	c4.14,0,7.494-3.354,7.494-7.494C454.225,405.688,450.871,402.334,446.731,402.334z"/>
<path d="M275.876,248.432c-8.087-3.395-13.261-11.257-13.179-20.026c0.064-6.976,3.538-13.516,9.289-17.492
	c2.553-1.762,4.119-4.54,4.296-7.623c0.177-3.072-1.055-5.999-3.377-8.031c-6.142-5.377-13.669-8.856-21.658-10.102
	c0.597-0.593,1.18-1.2,1.738-1.84c7.365-8.45,10.281-19.834,8.209-32.053c-0.856-5.055-5.366-8.988-10.495-9.148
	c-12.367-0.388-23.267,4.058-30.633,12.51c-7.189,8.248-10.126,19.295-8.336,31.185c-1.594-0.438-3.237-0.815-4.944-1.076
	c-2.08-0.318-4.139-0.489-6.122-0.509c-0.137-0.001-0.271-0.002-0.407-0.002c-22.871,0-41.638,17.75-42.88,40.605
	c-3.223,35.35,23.1,64.927,25.404,67.44c4.229,4.913,10.347,7.761,16.812,7.821c0.718-0.004,1.476-0.026,2.291-0.102
	c0.176-0.017,0.351-0.037,0.548-0.064c0.639-0.076,1.234-0.171,1.821-0.289l0.389-0.083c0.697-0.154,1.378-0.338,2.022-0.545
	c0.026-0.008,0.053-0.017,0.079-0.025c0.794-0.258,1.511-0.53,2.173-0.823c0.039-0.018,0.123-0.055,0.162-0.071l0.699-0.31
	c7.673-3.388,16.439-3.306,24.045,0.221l0.695,0.323c0.037,0.018,0.074,0.034,0.102,0.047c0.024,0.012,0.047,0.022,0.062,0.029
	c0.056,0.025,0.112,0.051,0.168,0.075c0.601,0.273,1.23,0.524,1.917,0.763c0.027,0.01,0.054,0.02,0.081,0.028
	c0.664,0.229,1.364,0.434,2.09,0.607l0.387,0.091c0.586,0.128,1.196,0.236,1.796,0.318c0.189,0.029,0.379,0.056,0.542,0.073
	c0.814,0.092,1.566,0.14,2.3,0.147c0.07,0,0.138,0.001,0.208,0.001c6.449-0.001,12.585-2.777,16.861-7.64l-0.005-0.005
	c2.462-2.637,13.08-14.599,20.154-31.464C283.288,256.359,280.909,250.545,275.876,248.432z M231.365,164.475
	c3.705-4.251,9.104-6.781,15.439-7.294c0.355,6.347-1.414,12.041-5.118,16.291c-3.705,4.25-9.104,6.78-15.439,7.294
	C225.892,174.419,227.66,168.724,231.365,164.475z M250.022,282.698c-0.084,0.087-0.165,0.175-0.245,0.266
	c-1.428,1.623-3.469,2.551-5.607,2.551c-0.023,0-0.046,0-0.069-0.001c-0.197-0.002-0.423-0.016-0.708-0.046l-0.239-0.035
	c-0.206-0.028-0.41-0.063-0.569-0.098l-0.16-0.038c-0.232-0.056-0.451-0.117-0.649-0.185c-0.018-0.007-0.036-0.013-0.053-0.019
	c-0.281-0.097-0.521-0.191-0.712-0.282c-0.062-0.028-0.123-0.056-0.185-0.083l-0.696-0.323c-11.519-5.343-24.789-5.466-36.409-0.336
	l-0.729,0.322c-0.053,0.022-0.104,0.045-0.156,0.067c-0.18,0.08-0.407,0.166-0.675,0.255c-0.021,0.006-0.041,0.013-0.062,0.02
	c-0.205,0.066-0.436,0.129-0.686,0.184c-0.013,0.003-0.118,0.025-0.13,0.028c-0.203,0.041-0.408,0.071-0.605,0.095l-0.234,0.03
	c-0.28,0.024-0.514,0.03-0.71,0.033c-2.164-0.02-4.217-0.987-5.63-2.656c-0.072-0.085-0.154-0.178-0.23-0.26
	c-0.244-0.263-24.321-26.599-21.557-56.117c0.01-0.106,0.018-0.213,0.023-0.32c0.755-14.93,12.997-26.538,27.92-26.538
	c0.088,0,0.177,0.001,0.266,0.002c1.29,0.012,2.597,0.122,3.998,0.337c1.415,0.216,2.765,0.522,3.996,0.902
	c0.224,0.07,0.442,0.148,0.661,0.227l0.841,0.286c0.447,0.168,0.885,0.351,1.291,0.526c0.055,0.023,0.16,0.067,0.247,0.102
	c0.455,0.201,0.902,0.414,1.343,0.638c0.005,0.003,0.011,0.006,0.017,0.009c3.351,1.796,6.512,2.7,9.656,2.765
	c0.057,0.001,0.12-0.002,0.17,0.002c3.151-0.007,6.337-0.856,9.732-2.598c0.441-0.215,0.888-0.417,1.324-0.601
	c0.091-0.034,0.177-0.068,0.245-0.097c0.436-0.179,0.875-0.352,1.306-0.504l0.837-0.27c0.23-0.076,0.458-0.154,0.678-0.219
	c1.252-0.362,2.609-0.643,4.031-0.834c1.397-0.188,2.703-0.277,3.998-0.262c4.656,0.042,9.198,1.249,13.224,3.468
	c-6.524,6.676-10.322,15.684-10.41,25.172c-0.122,13.119,6.686,25.04,17.703,31.627
	C258.855,273.391,250.221,282.491,250.022,282.698z"/>
<path d="M7.938,325.534c4.139,0,7.494-3.354,7.494-7.494c0.953-291.158-2.847-230.721,3.889-263.512
	c10.702-28.28,36.084-35.501,36.4-35.751c19.838-7.089,18.45-1.622,310.992-3.511c6.044,0,12.036,0.915,17.728,2.673
	c0.292,0.192,21.128,5.386,33.985,26.533c2.015,4.157,7.707,11.794,8.724,28.447c0.122,2.609,0.055,3.022,0.074,10.991
	c0,4.14,3.354,7.494,7.494,7.494c4.14,0,7.494-3.354,7.494-7.494c-0.504-3.256,4.081-37.389-24.432-63.617
	c-0.504-0.265-19.459-20.014-51.066-20.014C334.909,0.282,53.707,0.16,67.544,0.76C37.332,4.137,12.378,25.624,3.847,53.405
	c-5.695,18.228-3.373,18.91-3.402,264.635C0.444,322.178,3.8,325.534,7.938,325.534z"/>
<path d="M491.376,373.667h-49.51c0.613-6.427,0.244,8.581,0.345-254.788c0-4.14-3.354-7.494-7.494-7.494
	c-4.14,0-7.494,3.354-7.494,7.494c-0.396,253.426,0.578,246.134-0.426,254.788H74.976c-11.372,0-20.624,9.252-20.624,20.623v28.752
	c-22.872-8.794-38.921-31.03-38.921-56.496v-13.534c0-4.14-3.355-7.494-7.494-7.494s-7.494,3.354-7.494,7.494v13.534
	c0,33.394,22.185,62.796,53.909,72.319v22.701c0,11.372,9.252,20.624,20.624,20.624h39.539
	c8.094,17.872,25.847,29.541,45.759,29.541h192.016c4.14,0,7.494-3.354,7.494-7.494c0-4.14-3.354-7.494-7.494-7.494H160.275
	c-11.514,0-22.005-5.567-28.521-14.553h302.845c-6.516,8.988-17.006,14.553-28.521,14.553h-18.815c-4.14,0-7.494,3.354-7.494,7.494
	c0,4.14,3.354,7.494,7.494,7.494h18.815c19.912,0,37.666-11.67,45.759-29.541h39.539c11.372,0,20.624-9.253,20.624-20.624V394.29
	C512,382.918,502.748,373.667,491.376,373.667z M497.012,461.565c0,3.107-2.528,5.636-5.636,5.636c-19.108,0-399.605,0-416.399,0
	c-3.107,0-5.636-2.528-5.636-5.636c0-13.557,0-53.788,0-67.275c0-3.107,2.528-5.635,5.636-5.635c28.002,0,399.771,0,416.399,0
	c3.107,0,5.636,2.528,5.636,5.635V461.565z"/>
<g>
</g>
<g>
</g>
<g>
</g>
<g>
</g>
<g>
</g>
<g>
</g>
<g>
</g>
<g>
</g>
<g>
</g>
<g>
</g>
<g>
</g>
<g>
</g>
<g>
</g>
<g>
</g>
<g>
</g>
</svg>
